<?xml version="1.0" encoding="UTF-8"?>
<!-- Generator: visioncortex VTracer 0.6.12 -->
<svg version="1.1" xmlns="http://www.w3.org/2000/svg" width="1254" height="1254">
<path d="M0 0 C413.82 0 827.64 0 1254 0 C1254 413.82 1254 827.64 1254 1254 C840.18 1254 426.36 1254 0 1254 C0 840.18 0 426.36 0 0 Z M278 65 C278.453 70.092 280.974 73.144 284.062 77 C284.31 77.311 284.31 77.311 285.563 78.883 C289.264 83.388 292.564 86.657 298 89 C301 88.812 301 88.812 303 88 C303.938 85.938 303.938 85.938 304 83 C300.632 77.816 294.8 74.228 289.875 70.625 C289.277 70.184 288.68 69.743 288.064 69.288 C284.754 66.938 282.069 65.415 278 65 Z M193 80 C191.863 83.653 192.428 85.924 193.469 89.594 C194.091 92.411 194.23 95.119 194.375 98 C195.358 110.678 204.71 121.577 213.656 130.133 C222.031 136.805 232.986 142.329 243 146 C243.66 145.67 244.32 145.34 245 145 C244.599 144.45 244.198 143.899 243.785 143.332 C239.45 136.991 236.461 130.592 233.562 123.5 C230.203 115.376 226.755 108.712 221 102 C220.372 101.19 219.744 100.381 219.098 99.547 C212.599 91.614 203.895 85.099 195 80 C194.34 80 193.68 80 193 80 Z M152 198 C152.857 206.571 152.857 206.571 155 210 C154.34 210.33 154.34 210.33 151 212 C151.66 214.31 152.32 216.62 153 219 C152.01 219.33 151.02 219.66 150 220 C147 224.333 147 224.333 147 227 C146.34 227 145.68 227 145 227 C146.508 231.392 148.858 234.958 151.562 238.688 C151.786 238.996 151.786 238.996 152.919 240.558 C163.712 255.239 179.143 270.295 197 276 C197.66 275.67 198.32 275.34 199 275 C199.681 274.752 200.361 274.505 201.062 274.25 C203 273 203 273 203.75 270.375 C203.833 269.591 203.915 268.808 204 268 C206.64 268 209.28 268 212 268 C212.165 267.505 212.165 267.505 213 265 C214.65 265.33 216.3 265.66 218 266 C212.562 259.546 212.562 259.546 209.688 256.75 C208 255 208 255 207 252 C208.114 251.917 209.228 251.835 210.375 251.75 C211.571 251.502 212.767 251.255 214 251 C215.312 249 215.312 249 216 247 C216.66 246.67 217.32 246.34 218 246 C218 245.34 218 244.68 218 244 C218.99 243.67 219.98 243.34 221 243 C220.788 242.758 220.788 242.758 219.715 241.531 C219.128 240.861 218.542 240.191 217.938 239.5 C217.614 239.132 217.614 239.132 215.977 237.27 C214.769 235.884 213.574 234.487 212.398 233.074 C198.157 216.132 179.616 203.443 158 198 C154.562 197.875 154.562 197.875 152 198 Z M288 212 C289 214 289 214 289 214 Z M265 225 C266.527 228.382 268.503 231.103 270.812 234 C271.479 234.846 272.145 235.691 272.832 236.562 C275.037 239.042 277.355 241.006 280 243 C278.686 239.119 277.152 236.812 274.188 234 C273.48 233.319 272.772 232.639 272.043 231.938 C271.369 231.298 270.695 230.659 270 230 C268.996 229.004 267.996 228.004 267 227 C266.34 226.34 265.68 225.68 265 225 Z M300 225 C299.24 227.242 298.857 228.551 299.586 230.84 C299.751 231.151 299.751 231.151 300.59 232.723 C300.958 233.42 301.326 234.118 301.705 234.837 C302.111 235.572 302.518 236.306 302.938 237.062 C303.352 237.823 303.767 238.584 304.194 239.368 C317.323 263.022 335.83 277.117 359 290 C361.185 291.226 363.37 292.453 365.555 293.68 C372.351 297.487 379.169 301.256 386 305 C386.941 305.516 387.881 306.032 388.851 306.563 C409.339 317.739 409.339 317.739 418 320 C418.99 319.67 419.98 319.34 421 319 C420.67 318.67 420.34 318.34 420 318 C420.66 317.67 421.32 317.34 422 317 C421.34 316.34 420.68 315.68 420 315 C420.66 314.67 421.32 314.34 422 314 C416.72 309.71 411.44 305.42 406 301 C406.66 301 407.32 301 408 301 C408 299.907 408 298.814 408 297.688 C408 291 408 291 410 289 C394.48 269.077 375.389 257.82 351.778 249.48 C336.153 243.946 320.875 238.25 307 229 C306.01 229 305.02 229 304 229 C304 228.34 304 227.68 304 227 C302.68 226.34 301.36 225.68 300 225 Z M710 232 C709.918 232.763 709.835 233.526 709.75 234.312 C708.854 237.524 707.784 238.294 705 240 C706.32 240 707.64 240 709 240 C709.33 242.64 709.66 245.28 710 248 C712 246 712 246 712.938 243.5 C714 241 714 241 717 239 C716.381 238.773 715.763 238.546 715.125 238.312 C712.386 236.621 711.95 235.008 711 232 C710.67 232 710.34 232 710 232 Z M427 240 C426.75 245.625 426.75 245.625 429 249 C429.66 249 430.32 249 431 249 C430.385 243.462 430.385 243.462 428.438 241.125 C427.963 240.754 427.489 240.382 427 240 Z M408 244 C408.25 247.377 409.257 248.251 411.75 250.688 C414.762 252.831 416.391 253.682 420 254 C419.67 253.01 419.34 252.02 419 251 C419.938 247.812 419.938 247.812 421 245 C417.053 241.053 412.717 241.642 408 244 Z M213 267 C212.67 267.66 212.34 268.32 212 269 C212.99 268.67 213.98 268.34 215 268 C214.34 267.67 213.68 267.34 213 267 Z M202 275 C202.33 275.99 202.66 276.98 203 278 C203.33 277.01 203.66 276.02 204 275 C203.34 275 202.68 275 202 275 Z M501 288 C503.825 291.016 506.671 293.213 510.188 295.375 C513.6 297.493 516.955 299.643 520.25 301.938 C524.241 304.617 528.39 306.922 532.625 309.188 C532.936 309.354 532.936 309.354 534.509 310.197 C542.507 314.411 550.218 316.989 559 319.125 C560.054 319.389 561.109 319.654 562.195 319.926 C572.529 322.477 582.308 323.272 592.938 323.312 C593.642 323.316 594.346 323.319 595.071 323.322 C611.129 323.347 626.462 321.03 642 317 C641.34 316.67 640.68 316.34 640 316 C639.375 313.438 639.375 313.438 639 311 C638.237 311.062 637.474 311.124 636.688 311.188 C634 311 634 311 632.188 309.5 C631.796 309.005 631.404 308.51 631 308 C630.01 308.33 629.02 308.66 628 309 C627.835 308.67 627.835 308.67 627 307 C627.165 306.835 627.165 306.835 628 306 C627.835 305.67 627.835 305.67 627 304 C624.678 303.593 622.343 303.256 620 303 C622.64 302.67 625.28 302.34 628 302 C628 301.67 628 301.34 628 301 C624.067 300.857 620.135 300.714 616.202 300.573 C614.207 300.501 612.212 300.428 610.217 300.355 C608.963 300.31 607.71 300.265 606.418 300.219 C605.261 300.177 604.103 300.135 602.911 300.092 C599.552 299.986 597.215 299.928 594 301 C594.33 299.35 594.66 297.7 595 296 C593 295 593 295 590.375 295.5 C586.942 296.009 584.356 295.766 580.969 295.258 C578.306 294.909 575.681 294.933 573 295 C573 294.34 573 293.68 573 293 C575.31 293.33 577.62 293.66 580 294 C579.68 293.856 579.68 293.856 578.062 293.125 C576 292 576 292 575 290 C573.35 290.33 571.7 290.66 570 291 C570 290.34 570 289.68 570 289 C570.99 288.67 571.98 288.34 573 288 C567.496 287.886 562.077 288.039 556.59 288.496 C548.948 289.06 541.348 289.152 533.688 289.125 C533.016 289.124 532.344 289.123 531.652 289.122 C521.406 289.106 511.214 288.85 501 288 Z M410 290 C411 292 411 292 411 292 Z M583 293 C587 294 587 294 587 294 Z M358 308 C358.33 308.66 358.66 309.32 359 310 C359.66 309.67 360.32 309.34 361 309 C360.01 308.67 359.02 308.34 358 308 Z M361 310 C361.33 310.66 361.66 311.32 362 312 C362.66 311.67 363.32 311.34 364 311 C363.01 310.67 362.02 310.34 361 310 Z M641 312 C641.33 312.66 641.66 313.32 642 314 C642.33 313.34 642.66 312.68 643 312 C642.34 312 641.68 312 641 312 Z M378 320 C378.33 320.66 378.66 321.32 379 322 C379.66 321.67 380.32 321.34 381 321 C380.01 320.67 379.02 320.34 378 320 Z M383 323 C385.636 326.078 388.735 327.561 392.328 329.363 C392.954 329.678 393.58 329.992 394.225 330.316 C395.555 330.982 396.887 331.645 398.22 332.305 C400.206 333.291 402.185 334.288 404.164 335.287 C421.8 344.123 421.8 344.123 431 347 C431.99 346.67 432.98 346.34 434 346 C433.084 345.587 432.168 345.175 431.225 344.75 C427.742 343.18 424.26 341.606 420.78 340.031 C419.289 339.357 417.798 338.684 416.306 338.012 C407.426 334.013 398.629 329.908 389.975 325.438 C385.208 323 385.208 323 383 323 Z M510 333 C510.66 334.98 511.32 336.96 512 339 C513.98 338.34 515.96 337.68 518 337 C516 334 516 334 512.875 333.312 C511.926 333.209 510.978 333.106 510 333 Z M658 357 C661.296 359.197 664.603 360.406 668.312 361.688 C669.054 361.944 669.795 362.201 670.559 362.466 C673.037 363.318 675.518 364.159 678 365 C678.878 365.302 679.756 365.603 680.661 365.914 C693.006 370.131 705.029 373.493 718 375 C718.872 375.102 719.743 375.203 720.641 375.308 C732.784 376.665 744.786 377.292 757 377 C757.103 376.381 757.206 375.762 757.312 375.125 C758 373 758 373 761 371 C761 370.34 761 369.68 761 369 C761.66 369.165 761.66 369.165 765 370 C765 369.34 765 368.68 765 368 C763.68 367.34 762.36 366.68 761 366 C761 362.727 761.299 360.153 762 357 C754.059 354.1 746.408 351.948 738 351 C736.704 350.853 735.409 350.706 734.074 350.555 C708.951 348.256 682.902 353.642 658 357 Z M475 396 C473.965 396.49 472.93 396.98 471.863 397.484 C466.027 400.451 460.814 404.179 455.562 408.062 C454.875 408.57 454.188 409.077 453.479 409.599 C449.762 412.419 446.747 415.17 444 419 C449.146 418.424 453.551 417.253 458.438 415.438 C459.056 415.21 459.056 415.21 462.184 414.059 C462.648 413.884 462.648 413.884 465 413 C465.33 413.66 465.66 414.32 466 415 C467.32 414.34 468.64 413.68 470 413 C471.333 414.333 472.667 415.667 474 417 C474 417.33 474 417.66 474 418 C489.27 419.107 504.084 419.061 519.312 417.688 C519.677 417.655 519.677 417.655 521.523 417.491 C531.064 416.624 540.528 415.447 550 414 C549.34 413.67 548.68 413.34 548 413 C549.392 410.216 551.156 410.021 554 409 C554 408.34 554 407.68 554 407 C560.93 405.35 567.86 403.7 575 402 C575 401.67 575 401.34 575 401 C570.38 401.33 565.76 401.66 561 402 C562.65 401.67 564.3 401.34 566 401 C566 400.34 566 399.68 566 399 C572.439 395.78 582.014 398.817 588.707 399.971 C590.665 400.309 592.624 400.634 594.584 400.959 C601.913 402.2 609.109 403.665 616.304 405.536 C618.973 405.995 620.477 405.892 623 405 C602.524 399 602.524 399 596 399 C599.287 398.2 600.71 397.903 604 399 C604 398.34 604 397.68 604 397 C604.66 397 605.32 397 606 397 C606.33 397.66 606.66 398.32 607 399 C607 398.34 607 397.68 607 397 C608.65 396.67 610.3 396.34 612 396 C611.67 395.01 611.34 394.02 611 393 C611.577 393.206 612.155 393.413 612.75 393.625 C615.52 394.087 616.646 393.429 619 392 C618.01 391.67 617.02 391.34 616 391 C616 390.34 616 389.68 616 389 C616.66 389.33 617.32 389.66 618 390 C624.533 390.233 624.533 390.233 627 389 C627.33 389.99 627.66 390.98 628 392 C628.33 391.835 628.33 391.835 630 391 C629.67 390.505 629.67 390.505 628 388 C628.66 387.67 629.32 387.34 630 387 C577.334 365.476 525.588 371.763 475 396 Z M315 375 C315.041 376.238 315.082 377.475 315.125 378.75 C315.149 381.492 315.14 382.742 313.812 385.188 C313.678 385.487 313.678 385.487 313 387 C317.449 395.796 326.001 401.518 335 405 C338.03 405.911 340.861 406.502 344 407 C345 406 345 406 345.062 403.438 C345.042 402.633 345.021 401.829 345 401 C345.66 401 346.32 401 347 401 C349.125 399.125 349.125 399.125 351 397 C351 396.34 351 395.68 351 395 C352.32 394.67 353.64 394.34 355 394 C355 391 355 391 352.25 388.188 C342.072 380.017 328.109 375 315 375 Z M758 376 C758.33 376.66 758.66 377.32 759 378 C759.99 377.67 760.98 377.34 762 377 C760.68 376.67 759.36 376.34 758 376 Z M631 391 C632 393 632 393 632 393 Z M627 395 C631 396 631 396 631 396 Z M676 399 C675.013 402.117 674.747 403.489 676.223 406.473 C676.83 407.327 677.437 408.182 678.062 409.062 C680.661 412.888 682.862 416.62 684.812 420.812 C687.795 426.978 691.61 432.285 695.66 437.773 C697.581 440.422 699.328 443.067 701 445.875 C701.66 446.906 702.32 447.938 703 449 C703.66 449 704.32 449 705 449 C705.251 449.558 705.503 450.116 705.762 450.691 C709.271 457.234 714.717 462.856 720 468 C722.036 470.303 724.025 472.645 726 475 C726.99 474.67 726.99 474.67 732 473 C732 472.34 732 471.68 732 471 C732.66 471 733.32 471 734 471 C734.165 470.505 734.165 470.505 735 468 C738.625 467.799 740.865 468.142 744 470 C744 468 744 468 741.5 465.375 C740.675 464.591 739.85 463.808 739 463 C742 463 742 463 744.062 463.562 C746 464 746 464 748 463 C748.625 460.938 748.625 460.938 749 459 C749.361 459.371 749.361 459.371 751.188 461.25 C753.686 463.693 756.236 465.868 759 468 C757.182 463.904 754.475 461.065 751.461 457.805 C750 456 750 456 750 454 C751.98 453.67 753.96 453.34 756 453 C756.33 453.99 756.66 454.98 757 456 C758 453 758 453 758 450 C758.619 450.66 759.237 451.32 759.875 452 C762 454 762 454 764 454 C763.835 453.34 763.835 453.34 763 450 C763.364 450.445 763.727 450.889 764.102 451.348 C765.658 453.099 767.107 454.615 769 456 C772.375 455.875 772.375 455.875 775 455 C775.33 455.99 775.66 456.98 776 458 C777.65 457.67 779.3 457.34 781 457 C781.281 457.871 781.562 458.743 781.852 459.641 C782.912 462.741 784.119 465.725 785.375 468.75 C793.053 488.762 793.624 508.869 792 530 C796.898 525.102 795.795 513.611 796 507 C795.858 493.761 793.339 481.457 789 469 C788.704 468.082 788.407 467.164 788.102 466.219 C781.228 446.795 765.184 430.107 747 421 C746.215 420.602 745.43 420.203 744.621 419.793 C725.971 410.824 705.356 406.576 685.204 402.424 C681.606 401.677 679.094 401.063 676 399 Z M649 415 C652.841 418.4 657.406 419.938 662.125 421.75 C662.949 422.079 663.772 422.407 664.621 422.746 C665.409 423.052 666.196 423.357 667.008 423.672 C667.726 423.951 668.444 424.231 669.184 424.519 C671 425 671 425 673 424 C668.596 420.804 664.488 418.878 659.312 417.25 C658.649 417.03 657.986 416.809 657.303 416.582 C654.418 415.647 652.052 415 649 415 Z M590 428 C590 428.33 590 428.66 590 429 C593.928 429.29 597.857 429.574 601.786 429.854 C603.766 429.997 605.745 430.143 607.725 430.289 C613.565 430.703 619.408 431.088 625.262 431.25 C626.111 431.276 626.96 431.302 627.835 431.328 C630 431 630 431 631.859 429.734 C632.235 429.162 632.612 428.59 633 428 C632.835 427.34 632.835 427.34 632 424 C635.96 424 639.92 424 644 424 C644 423.67 644 423.34 644 423 C643.175 422.835 643.175 422.835 639 422 C639.33 421.34 639.66 420.68 640 420 C638.866 419.856 637.731 419.711 636.562 419.562 C633 419 633 419 632 418 C633.98 418 635.96 418 638 418 C638 417.34 638 416.68 638 416 C620.428 415.394 605.627 420.438 590 428 Z M782 422 C786 423 786 423 786 423 Z M788 431 C797.933 436.533 808.044 441.51 818.438 446.125 C819.545 446.622 820.653 447.12 821.795 447.632 C822.313 447.859 822.313 447.859 824.934 449.008 C825.862 449.417 826.791 449.825 827.748 450.247 C828.491 450.495 829.234 450.744 830 451 C830.66 450.67 831.32 450.34 832 450 C830.928 448.678 829.842 447.368 828.75 446.062 C828.147 445.332 827.543 444.601 826.922 443.848 C824.893 441.897 823.746 441.383 821 441 C821 440.34 821 439.68 821 439 C820.34 438.505 819.68 438.01 819 437.5 C818.34 437.005 817.68 436.51 817 436 C817 435.34 817 434.68 817 434 C812.25 433 812.25 433 810 433 C808.323 432.361 806.654 431.697 805 431 C805 430.34 805 429.68 805 429 C803.804 429.186 802.607 429.371 801.375 429.562 C798.491 429.94 796.616 429.935 793.688 429.438 C791 429 791 429 788 431 Z M900.375 431.188 C898 433 898 433 897.188 435.188 C897.126 435.786 897.064 436.384 897 437 C895.35 437.33 893.7 437.66 892 438 C892.534 443.725 894.16 448.239 896.562 453.438 C896.892 454.169 897.221 454.901 897.561 455.654 C898.366 457.44 899.182 459.22 900 461 C900.33 461 900.66 461 901 461 C901.33 459.35 901.66 457.7 902 456 C902.66 456.33 903.32 456.66 904 457 C904.33 455.68 904.66 454.36 905 453 C905.99 453 906.98 453 908 453 C908.33 453.66 908.66 454.32 909 455 C910.816 453.184 910.258 450.512 910.312 448.062 C910.271 441.853 909.393 436.31 906 431 C903 430 903 430 900.375 431.188 Z M675 437 C679 438 679 438 679 438 Z M659.25 453.375 C658.127 453.501 657.004 453.628 655.848 453.758 C654.769 453.887 653.69 454.016 652.578 454.148 C652.09 454.206 652.09 454.206 649.622 454.498 C647.08 454.985 645.234 455.719 643 457 C643.727 457.303 644.454 457.606 645.203 457.918 C646.209 458.337 647.214 458.756 648.25 459.188 C649.351 459.643 650.452 460.098 651.586 460.566 C653.727 461.465 655.859 462.387 657.977 463.34 C668.269 467.904 678.698 470.585 690 470 C688.448 466.672 686.694 464.514 684 462 C686.97 462 689.94 462 693 462 C690.802 459.802 689.825 459.541 686.875 458.875 C685.596 458.586 684.317 458.298 683 458 C682.835 457.34 682.835 457.34 682 454 C681.34 454.33 680.68 454.66 680 455 C679.34 454.67 678.68 454.34 678 454 C678.66 453.34 679.32 452.68 680 452 C672.992 451.812 666.202 452.533 659.25 453.375 Z M399 468 C395.295 469.441 391.597 470.898 387.904 472.37 C386.039 473.109 384.17 473.836 382.301 474.562 C369.93 479.511 359.129 486.457 353.5 499.062 C352.982 500.368 352.475 501.678 352 503 C353.65 503 355.3 503 357 503 C358.245 505.491 357.777 506.411 357 509 C358.32 508.01 359.64 507.02 361 506 C361.99 507.32 362.98 508.64 364 510 C379.116 500.234 394.607 489.688 401 472 C400.066 469.818 400.066 469.818 399 468 Z M760 469 C760.33 469.99 760.66 470.98 761 472 C761 471.01 761 470.02 761 469 C760.67 469 760.34 469 760 469 Z M258 472 C257.876 472.969 257.752 473.939 257.625 474.938 C257.419 475.948 257.212 476.959 257 478 C256.67 478.165 256.67 478.165 255 479 C255.66 479 256.32 479 257 479 C257.33 481.64 257.66 484.28 258 487 C258.33 487 258.66 487 259 487 C259.144 486.443 259.144 486.443 259.875 483.625 C261 480 261 480 263 478 C262.01 477.34 261.02 476.68 260 476 C258.812 473.875 258.812 473.875 258 472 Z M943 488 C935.009 498.673 930.917 509.869 926.853 522.492 C925.744 525.754 924.422 528.863 923 532 C933.261 528.227 943.183 520.368 948 510.375 C949.074 506.749 949.23 503.761 949 500 C947.68 499.67 946.36 499.34 945 499 C945.023 498.374 945.046 497.747 945.07 497.102 C945.088 496.284 945.106 495.467 945.125 494.625 C945.148 493.813 945.171 493.001 945.195 492.164 C945 490 945 490 943 488 Z M837 523 C835.82 524.218 834.681 525.476 833.562 526.75 C832.945 527.446 832.328 528.142 831.691 528.859 C828.712 532.63 827.732 535.181 828 540 C830.688 541.25 830.688 541.25 834 542 C838.315 539.592 840.205 536.534 842 532 C842 530.68 842 529.36 842 528 C841.34 528 840.68 528 840 528 C839.34 526.35 838.68 524.7 838 523 C837.67 523 837.34 523 837 523 Z M522 550 C519 553.091 519 553.091 519 556 C519.99 556 520.98 556 522 556 C522 556.66 522 557.32 522 558 C526.278 557.161 529.013 556.453 531.938 553.125 C534 550 534 550 534 546 C529.499 546 525.911 547.859 522 550 Z M805 548 C806 550 806 550 806 550 Z M804 550 C805 552 805 552 805 552 Z M803 552 C804 554 804 554 804 554 Z M802 555 C803 557 803 557 803 557 Z M801 557 C802 559 802 559 802 559 Z M800 559 C801 561 801 561 801 561 Z M799 561 C798.505 561.66 798.505 561.66 796 565 C796.33 565.66 796.66 566.32 797 567 C797.99 565.68 798.98 564.36 800 563 C799.67 562.34 799.34 561.68 799 561 Z M795 567 C795 570 795 570 795 570 Z M583 573 C583 573.66 583 574.32 583 575 C582.01 575 581.02 575 580 575 C580.33 574.34 580.66 573.68 581 573 C579.185 573.33 579.185 573.33 570 575 C570 575.66 570 576.32 570 577 C562 577 562 577 559 576 C558.34 576.33 557.68 576.66 557 577 C557 577.66 557 578.32 557 579 C556.432 579.014 555.863 579.028 555.277 579.043 C549.046 579.428 545.716 580.886 541 585 C541 585.66 541 586.32 541 587 C540.423 587.093 540.423 587.093 537.5 587.562 C532.701 588.621 528.358 590.409 523.875 592.375 C523.207 592.667 522.538 592.959 521.85 593.26 C517.399 595.255 513.201 597.523 509 600 C509.33 600.66 509.66 601.32 510 602 C508.02 602.99 506.04 603.98 504 605 C504.33 605.66 504.66 606.32 505 607 C505.495 606.835 505.495 606.835 508 606 C508 606.66 508 607.32 508 608 C506.845 608.165 506.845 608.165 501 609 C501 610.65 501 612.3 501 614 C500.67 614.165 500.67 614.165 499 615 C503.875 614.125 503.875 614.125 505 613 C506.54 612.78 508.081 612.564 509.623 612.362 C516.369 611.335 523.035 609.759 529.71 608.354 C541.112 605.958 541.112 605.958 545.898 605.102 C558.365 602.813 570.286 598.887 582.292 594.884 C594.943 590.715 607.191 588.614 620.562 588.688 C621.067 588.688 621.067 588.688 623.623 588.691 C633.898 588.82 643.894 590.232 654 592 C650.864 589.46 647.659 587.753 644 586.062 C642.969 585.579 641.938 585.096 640.875 584.598 C631.768 580.677 622.185 578.109 612.562 575.812 C611.473 575.552 610.384 575.292 609.261 575.023 C590.631 570.705 590.631 570.705 583 573 Z M704.199 577.496 C702.812 579.062 702.812 579.062 701 582 C701.33 582.99 701.66 583.98 702 585 C702.99 584.67 703.98 584.34 705 584 C705 584.66 705 585.32 705 586 C708.73 585.74 710.69 585.238 713.688 582.938 C716.494 579.373 717.614 576.303 719 572 C713.714 572 708.277 574.108 704.199 577.496 Z M790 578.75 C788.948 579.095 787.896 579.441 786.812 579.797 C784.177 580.924 782.802 581.822 781 584 C781.615 584 782.23 584 782.863 584 C786.242 584 789.621 584 793 584 C792.67 582.68 792.34 581.36 792 580 C794.31 579.34 796.62 578.68 799 578 C795.217 576.739 793.736 577.486 790 578.75 Z M463 598 C462.417 598.485 461.835 598.969 461.234 599.469 C456.677 603.195 452.112 606.618 447.125 609.75 C433.157 618.936 423.38 631.062 418.531 647.152 C418.015 649.918 418.045 651.394 419 654 C419.66 654 420.32 654 421 654 C421 653.34 421 652.68 421 652 C421.66 652 422.32 652 423 652 C423 651.34 423 650.68 423 650 C423.99 650 424.98 650 426 650 C429 653 429 653 430 656 C431.791 659.338 432.792 660.861 436 663 C435.693 663.654 435.386 664.307 435.07 664.981 C429.52 676.834 424.061 688.544 420 701 C419.584 702.169 419.167 703.338 418.738 704.543 C416.324 711.423 414.345 718.265 412.75 725.375 C412.587 726.1 412.424 726.825 412.256 727.571 C408.367 745.707 408.636 764.995 413 783 C413.096 783.4 413.096 783.4 413.584 785.422 C414.2 787.913 414.842 790.395 415.5 792.875 C415.701 793.643 415.903 794.411 416.11 795.202 C417.171 798.976 418.087 801.389 421 804 C420.746 803.077 420.492 802.154 420.23 801.203 C417.879 792.383 416.196 783.61 414.952 774.565 C414.84 773.754 414.728 772.942 414.613 772.105 C414.566 771.745 414.566 771.745 414.325 769.923 C414 768 414 768 413 765 C413.99 765.33 414.98 765.66 416 766 C416 765.34 416 764.68 416 764 C416.99 763.67 417.98 763.34 419 763 C418.651 762.241 418.301 761.481 417.941 760.699 C417.486 759.705 417.031 758.711 416.562 757.688 C416.11 756.701 415.658 755.715 415.191 754.699 C414 752 414 752 413 749 C413.66 748.67 414.32 748.34 415 748 C414.959 746.928 414.918 745.855 414.875 744.75 C414.992 741.234 415.33 739.923 417 737 C417 736.01 417 735.02 417 734 C417.66 733.67 418.32 733.34 419 733 C419.33 734.32 419.66 735.64 420 737 C420.66 735.35 421.32 733.7 422 732 C422.99 732.66 423.98 733.32 425 734 C425.11 733.348 425.219 732.695 425.332 732.023 C426.265 726.88 427.348 722.581 430 718 C431.915 719.915 431.534 722.81 431.849 725.385 C434.494 746.776 439.958 768.795 450 788 C450.99 787.67 451.98 787.34 453 787 C453 787.66 453 788.32 453 789 C454.32 789.33 455.64 789.66 457 790 C457.062 790.722 457.124 791.444 457.188 792.188 C458.264 795.915 460.148 797.407 463 800 C466.72 803.622 470.07 807.409 473.352 811.426 C475 813 475 813 478 813 C478.66 814.32 479.32 815.64 480 817 C480.66 817 481.32 817 482 817 C482 817.66 482 818.32 482 819 C483.32 819.33 484.64 819.66 486 820 C486.33 819.34 486.66 818.68 487 818 C487.224 818.356 487.224 818.356 488.355 820.16 C491.762 825.557 495.226 830.854 499 836 C499.66 835.34 500.32 834.68 501 834 C502.485 834.825 502.485 834.825 510 839 C510 838.01 510 837.02 510 836 C510.66 836 511.32 836 512 836 C512 836.99 512 837.98 512 839 C513.65 839.66 515.3 840.32 517 841 C520.927 823.644 506.386 800.105 497.535 785.863 C491.631 776.697 484.582 768.442 477.578 760.105 C454.831 732.863 437.167 705.104 440.309 668.395 C441.085 662.532 442.356 657.616 444.941 652.312 C448.03 645.566 449.703 638.146 451.598 630.992 C451.89 629.906 452.182 628.82 452.483 627.701 C453.064 625.537 453.632 623.369 454.187 621.197 C455.951 614.635 458.318 609.099 461.815 603.264 C463 601 463 601 463 598 Z M302 605 C299.938 606.688 299.938 606.688 298 609 C298 613.481 300.241 616.604 303 620 C305.505 622.011 308.001 623.823 311 625 C313.25 624.629 313.25 624.629 315 624 C315 622.68 315 621.36 315 620 C315.66 620 316.32 620 317 620 C316.084 615.198 313.547 612.26 310 609 C307.386 607.39 304.832 606.221 302 605 Z M702 608 C701.01 608.99 700.02 609.98 699 611 C699.33 611.66 699.66 612.32 700 613 C700.99 612.01 701.98 611.02 703 610 C702.67 609.34 702.34 608.68 702 608 Z M604.125 613.312 C603 615 603 615 603 618 C609.523 618.369 609.523 618.369 611.938 616.5 C612.288 616.005 612.639 615.51 613 615 C612.67 614.01 612.34 613.02 612 612 C606.522 611.635 606.522 611.635 604.125 613.312 Z M698 613 C697.51 613.487 697.02 613.975 696.516 614.477 C687.814 622.728 677.888 629.266 668 636 C668.66 636.33 669.32 636.66 670 637 C672.359 635.882 674.52 634.715 676.75 633.375 C677.409 632.981 678.069 632.588 678.748 632.182 C686.372 627.429 692.664 621.317 699 615 C698.67 614.34 698.34 613.68 698 613 Z M771 623.062 C768 624 768 624 766.082 623.512 C763.617 622.906 762.154 623.188 759.688 623.75 C758.816 623.939 757.945 624.129 757.047 624.324 C756.041 624.547 755.036 624.77 754 625 C751.481 625.528 748.96 626.048 746.438 626.562 C745.24 626.811 744.042 627.06 742.809 627.316 C740.057 627.81 737.457 628.161 734.688 628.41 C729.46 628.955 724.585 630.369 719.562 631.875 C718.685 632.132 717.808 632.388 716.904 632.652 C715.133 633.172 713.364 633.696 711.596 634.226 C709.931 634.723 708.263 635.209 706.592 635.682 C699.354 637.76 692.378 640.429 685.375 643.188 C684.762 643.428 684.149 643.669 683.518 643.917 C658.049 653.951 658.049 653.951 653 659 C653.66 659 654.32 659 655 659 C654.67 659.99 654.34 660.98 654 662 C654.66 662 655.32 662 656 662 C655.526 662.433 655.051 662.866 654.562 663.312 C653 665 653 665 652 668 C648.438 669.688 648.438 669.688 645 671 C647.818 672.409 649.173 671.509 652.125 670.562 C653.035 670.275 653.945 669.988 654.883 669.691 C655.232 669.577 655.232 669.577 657 669 C657 669.99 657 670.98 657 672 C655.02 672.66 653.04 673.32 651 674 C651 674.33 651 674.66 651 675 C652.98 675 654.96 675 657 675 C657 675.99 657 676.98 657 678 C660.007 679.002 661.456 679.034 664.543 678.766 C665.443 678.688 666.344 678.611 667.271 678.531 C672.186 678.057 677.095 677.557 682 677 C682.741 676.918 683.481 676.836 684.245 676.751 C702.887 674.51 719.995 665.564 735.982 656.171 C737.895 655.061 739.824 653.994 741.77 652.941 C755.949 645.22 768.957 635.564 778 622 C774 622 774 622 771 623.062 Z M925 632.125 C924.397 632.409 923.793 632.692 923.172 632.984 C918.521 635.31 915.979 637.86 913 642 C912.188 644.875 912.188 644.875 912 647 C912.66 647.33 913.32 647.66 914 648 C914.33 648.66 914.66 649.32 915 650 C915.99 649.34 916.98 648.68 918 648 C918 648.66 918 649.32 918 650 C924.559 648.524 929.717 644.512 933.363 638.902 C935.031 635.658 936.187 632.558 937 629 C932.368 628.561 929.034 630.073 925 632.125 Z M506.988 636.344 C506.388 636.588 505.787 636.833 505.168 637.085 C503.214 637.884 501.263 638.691 499.312 639.5 C498.651 639.774 497.99 640.048 497.309 640.331 C482.846 646.352 469.773 652.426 458 663 C458.66 663.33 459.32 663.66 460 664 C460.33 664.66 460.66 665.32 461 666 C461 665.34 461 664.68 461 664 C461.66 664 462.32 664 463 664 C463.33 665.98 463.66 667.96 464 670 C464.33 669.34 464.66 668.68 465 668 C465.763 668.227 466.526 668.454 467.312 668.688 C468.199 668.791 469.086 668.894 470 669 C471.812 667.562 471.812 667.562 473 666 C472.67 666.99 472.34 667.98 472 669 C473.65 669.33 475.3 669.66 477 670 C477 670.99 477 671.98 477 673 C482.524 673 486.173 667.65 490 664 C490.482 663.55 490.964 663.101 491.461 662.638 C500.674 654.028 508.012 644.482 515 634 C512.021 634 509.743 635.222 506.988 636.344 Z M775 659 C777 660 777 660 779.438 660 C783.116 660 785.796 661.343 789 663 C789 663.66 789 664.32 789 665 C793.053 663.775 796.444 662.301 800 660 C798.68 659.01 797.36 658.02 796 657 C796.99 656.34 797.98 655.68 799 655 C798.67 654.34 798.34 653.68 798 653 C797.01 653.33 796.02 653.66 795 654 C795.33 653.01 795.66 652.02 796 651 C788.466 651 781.242 655.186 775 659 Z M428 656 C427.67 657.32 427.34 658.64 427 660 C427.66 659.67 428.32 659.34 429 659 C428.67 658.01 428.34 657.02 428 656 Z M434 662 C435 664 435 664 435 664 Z M488 677 C487.856 678.258 487.711 679.516 487.562 680.812 C487.263 683.427 486.842 685.474 486 688 C483.36 688.33 480.72 688.66 478 689 C478 689.33 478 689.66 478 690 C479.114 690.309 480.228 690.619 481.375 690.938 C485 692 485 692 487 693 C487.33 699.27 487.66 705.54 488 712 C488.33 712 488.66 712 489 712 C489.33 705.73 489.66 699.46 490 693 C492.667 691.667 495.333 690.333 498 689 C497.175 688.835 497.175 688.835 493 688 C492.67 687.01 492.34 686.02 492 685 C491.34 685 490.68 685 490 685 C489.67 682.36 489.34 679.72 489 677 C488.67 677 488.34 677 488 677 Z M652 678 C656 679 656 679 656 679 Z M364 685 C365 687 365 687 365 687 Z M363 688 C364 690 364 690 364 690 Z M362 690 C361.468 691.601 360.95 693.206 360.438 694.812 C360.147 695.706 359.857 696.599 359.559 697.52 C359 700 359 700 360 703 C360.534 701.588 361.052 700.17 361.562 698.75 C361.853 697.961 362.143 697.172 362.441 696.359 C363.045 693.809 362.847 692.447 362 690 Z M558.125 711.375 C554.652 715.108 551.783 719.199 550 724 C550.188 727.562 550.188 727.562 551 730 C552.32 730 553.64 730 555 730 C554.34 731.98 553.68 733.96 553 736 C553.99 735.01 554.98 734.02 556 733 C559 734 559 734 560 736 C563 736 563 736 564.656 734.699 C570.16 728.694 573.895 722.127 577.844 715.038 C581.089 709.309 584.486 704.609 589.125 699.91 C590.953 698.048 592.483 696.119 594 694 C581.76 694 566.767 703.378 558.125 711.375 Z M864 706 C863.711 707.134 863.423 708.269 863.125 709.438 C862.754 710.613 862.383 711.789 862 713 C861.67 713.165 861.67 713.165 860 714 C860 714.66 860 715.32 860 716 C860.474 716.392 860.949 716.784 861.438 717.188 C863.747 719.866 863.676 722.561 864 726 C864.33 726 864.66 726 865 726 C865.11 725.374 865.219 724.747 865.332 724.102 C865.491 723.284 865.649 722.467 865.812 721.625 C865.963 720.813 866.114 720.001 866.27 719.164 C867 717 867 717 870 715 C869.68 714.722 869.68 714.722 868.062 713.312 C865.803 710.779 865.369 709.317 865 706 C864.67 706 864.34 706 864 706 Z M358 707 C357.184 710.853 356.373 714.708 355.562 718.562 C355.332 719.649 355.102 720.735 354.865 721.854 C349.046 749.6 351.38 777.682 367 802 C372.392 809.749 378.897 815.863 386 822 C386.66 821.67 387.32 821.34 388 821 C388.99 821.33 389.98 821.66 391 822 C390.691 821.402 390.381 820.804 390.062 820.188 C389 818 389 818 388 815 C388.99 816.32 389.98 817.64 391 819 C391.66 818.67 392.32 818.34 393 818 C393 817.34 393 816.68 393 816 C394.65 816.66 396.3 817.32 398 818 C397.196 817.216 396.391 816.433 395.562 815.625 C393 813 393 813 392 811 C392.66 811 393.32 811 394 811 C394 811.66 394 812.32 394 813 C394.32 812.835 394.32 812.835 395.938 812 C398 811 398 811 399 811 C400.38 812.307 401.729 813.646 403.062 815 C403.796 815.743 404.529 816.485 405.285 817.25 C405.851 817.827 406.417 818.405 407 819 C407 816 407 816 405.609 814.387 C404.996 813.826 404.382 813.265 403.75 812.688 C400.586 809.671 398.271 806.724 396 803 C397.32 801.68 398.64 800.36 400 799 C400.33 799.165 400.33 799.165 402 800 C402.911 797.45 403.178 796.404 402.062 793.875 C401.712 793.256 401.361 792.638 401 792 C401 791.34 401 790.68 401 790 C400.34 790 399.68 790 399 790 C399 789.34 399 788.68 399 788 C400.32 788.33 401.64 788.66 403 789 C403.812 786.312 403.812 786.312 404 783 C402.062 780.688 402.062 780.688 400.645 779.457 C394.481 773.997 389.377 767.124 384.219 760.738 C382.82 759.012 381.406 757.299 379.969 755.605 C367.599 740.806 360.804 726.134 359 707 C358.67 707 358.34 707 358 707 Z M549 727 C550 730 550 730 550 730 Z M551 732 C552 734 552 734 552 734 Z M707.438 736 C706 738 706 738 706 740 C707.125 741.688 707.125 741.688 709 743 C712.974 743 714.662 742.277 717.75 739.75 C719.861 737.17 721.008 735.155 722 732 C716.707 732 711.667 732.699 707.438 736 Z M607 765 C607.66 765.33 608.32 765.66 609 766 C607.35 766.66 605.7 767.32 604 768 C604 768.33 604 768.66 604 769 C602.515 769.165 602.515 769.165 595 770 C595.99 770.99 596.98 771.98 598 773 C598 775.156 597.553 776.924 597 779 C607.227 782.124 616.763 782.128 627.357 781.939 C635.05 781.855 641.904 782.521 649.34 784.441 C652 785 652 785 655 784 C623.47 764.472 623.47 764.472 607 765 Z M419 766 C420 768 420 768 420 768 Z M419 771 C419 772.32 419 773.64 419 775 C419.66 774.67 420.32 774.34 421 774 C420.34 773.01 419.68 772.02 419 771 Z M404 785 C404 785.66 404 786.32 404 787 C404.66 786.67 405.32 786.34 406 786 C405.34 785.67 404.68 785.34 404 785 Z M406 787 C406.66 788.32 407.32 789.64 408 791 C408 790.01 408 789.02 408 788 C407.34 787.67 406.68 787.34 406 787 Z M451 788 C452 790 452 790 452 790 Z M403 789 C402.67 789.99 402.34 790.98 402 792 C403.32 793.32 404.64 794.64 406 796 C405.34 793.69 404.68 791.38 404 789 C403.67 789 403.34 789 403 789 Z M406 792 C406.66 792.66 407.32 793.32 408 794 C408 793.34 408 792.68 408 792 C407.34 792 406.68 792 406 792 Z M567 798 C568 801 568 801 568 801 Z M456 801 C457 803 457 803 457 803 Z M457 803 C458 805 458 805 458 805 Z M458 805 C459 807 459 807 459 807 Z M459 807 C459.33 807.99 459.66 808.98 460 810 C460 809.01 460 808.02 460 807 C459.67 807 459.34 807 459 807 Z M461 810 C462 812 462 812 462 812 Z M462 812 C463 814 463 814 463 814 Z M463 814 C464 816 464 816 464 816 Z M287 816 C287 817.32 287 818.64 287 820 C286.34 820 285.68 820 285 820 C285.349 826.803 289.014 832.211 293.895 836.77 C299.72 841.308 306.45 845.64 314 846 C314.66 845.34 315.32 844.68 316 844 C315.01 842.68 314.02 841.36 313 840 C313.66 840 314.32 840 315 840 C313.225 832.111 307.315 826.662 301 822 C298.967 820.862 296.903 819.778 294.812 818.75 C293.767 818.229 292.722 817.708 291.645 817.172 C289 816 289 816 287 816 Z M465 817 C466 819 466 819 466 819 Z M466 819 C467 821 467 821 467 821 Z M486 820 C487 822 487 822 487 822 Z M467 821 C467.33 821.99 467.66 822.98 468 824 C468 823.01 468 822.02 468 821 C467.67 821 467.34 821 467 821 Z M469 824 C470 826 470 826 470 826 Z M805 824 C804.67 824.66 804.34 825.32 804 826 C802.356 826.722 800.689 827.394 799 828 C801.747 838.713 809.425 846.935 818.66 852.645 C825.188 856.134 825.188 856.134 828.293 855.621 C828.856 855.416 829.42 855.211 830 855 C830.124 854.361 830.247 853.721 830.375 853.062 C830.478 852.722 830.478 852.722 831 851 C831.66 850.67 832.32 850.34 833 850 C833.309 849.216 833.619 848.433 833.938 847.625 C834.984 845.04 835.921 843.795 838 842 C834.984 834.871 829.805 830.349 823 827 C816.906 824.578 811.534 823.637 805 824 Z M415 826 C415.33 826.66 415.66 827.32 416 828 C416.66 827.67 417.32 827.34 418 827 C417.01 826.67 416.02 826.34 415 826 Z M471 827 C472 829 472 829 472 829 Z M472 829 C473 831 473 831 473 831 Z M474 832 C475 834 475 834 475 834 Z M475 834 C476 836 476 836 476 836 Z M477 837 C477.33 837.99 477.66 838.98 478 840 C478 839.01 478 838.02 478 837 C477.67 837 477.34 837 477 837 Z M479 840 C479.33 840.99 479.66 841.98 480 843 C480 842.01 480 841.02 480 840 C479.67 840 479.34 840 479 840 Z M481 843 C482 845 482 845 482 845 Z M483 846 C484 848 484 848 484 848 Z M389 849 C390.617 852.235 391.476 853.706 394 856 C394.66 855.67 395.32 855.34 396 855 C393.69 853.02 391.38 851.04 389 849 Z M556 852 C560.569 858.414 565.653 864.226 571 870 C571.278 870.329 571.278 870.329 572.688 871.992 C577.156 876.978 582.461 880.479 588.062 884.062 C588.811 884.545 589.56 885.028 590.332 885.525 C604.252 894.179 619.551 899.61 634.875 905.188 C637.75 906.238 640.624 907.291 643.496 908.347 C645.266 908.997 647.037 909.644 648.809 910.287 C655.944 912.901 662.856 915.923 669.699 919.227 C670.102 919.42 670.102 919.42 672.141 920.399 C672.982 920.804 673.822 921.208 674.688 921.625 C680.4 924.367 686.123 927.073 691.906 929.664 C692.873 930.098 693.841 930.531 694.837 930.978 C696.677 931.799 698.519 932.615 700.364 933.424 C705.819 935.859 710.854 938.625 715.882 941.854 C718 943 718 943 721 943 C718.108 940.512 715.526 938.292 712.188 936.438 C709.497 934.67 709.744 933.988 709 931 C707.132 928.808 705.257 926.744 703.25 924.688 C699.508 920.821 696.186 916.959 693.122 912.533 C691.716 910.612 690.151 909.132 688.312 907.625 C686.1 905.785 683.955 903.956 681.895 901.945 C659.399 880.186 628.881 872.557 599.283 866.054 C585.595 863.035 572.111 859.707 559.75 852.883 C558 852 558 852 556 852 Z M488 853 C489 855 489 855 489 855 Z M646 855 C646.382 855.474 646.382 855.474 648.312 857.875 C648.527 858.142 648.527 858.142 649.613 859.492 C651 861 651 861 654 863 C653.01 864.32 652.02 865.64 651 867 C652.32 867.33 653.64 867.66 655 868 C655 868.99 655 869.98 655 871 C658 872 658 872 661.5 872 C665 872 665 872 668 873 C668.33 873.99 668.66 874.98 669 876 C671.64 876.33 674.28 876.66 677 877 C675.044 870.046 669.058 864.074 663.168 860.098 C658.157 857.56 651.672 855 646 855 Z M397 857 C397.99 858.32 398.98 859.64 400 861 C400.66 860.67 401.32 860.34 402 860 C400.625 858.5 400.625 858.5 399 857 C398.34 857 397.68 857 397 857 Z M491 857 C492 859 492 859 492 859 Z M407 865 C427.272 889.777 462.094 917.353 495 921 C495.66 920.01 496.32 919.02 497 918 C496.051 917.691 495.103 917.381 494.125 917.062 C491 916 491 916 489 915 C489.66 914.67 490.32 914.34 491 914 C491 913.34 491 912.68 491 912 C492.32 911.67 493.64 911.34 495 911 C494.34 910.835 494.34 910.835 491 910 C491.33 909.67 491.33 909.67 493 908 C492.618 907.938 492.618 907.938 490.688 907.625 C488 907 488 907 485 905 C486.73 905.455 488.459 905.914 490.188 906.375 C491.15 906.63 492.113 906.885 493.105 907.148 C496 908 496 908 498.613 909.164 C501 910 501 910 505 909 C500.05 907.02 495.1 905.04 490 903 C490.33 902.01 490.66 901.02 491 900 C492.98 900 494.96 900 497 900 C496.34 899.34 495.68 898.68 495 898 C495.33 897.67 495.33 897.67 497 896 C484.378 891.527 471.788 887.577 458.75 884.5 C442.842 880.692 428.323 875.013 413.845 867.438 C409.184 865 409.184 865 407 865 Z M652 869 C652.66 869.66 653.32 870.32 654 871 C654 870.34 654 869.68 654 869 C653.34 869 652.68 869 652 869 Z M743 888 C744.32 889.65 745.64 891.3 747 893 C743.996 894.001 741.123 894.514 738 895 C738.33 895.66 738.66 896.32 739 897 C740.65 897 742.3 897 744 897 C743.67 897.33 743.34 897.66 743 898 C743.66 898.66 744.32 899.32 745 900 C745.66 900 746.32 900 747 900 C744.23 902.77 742.235 902.398 738.375 902.625 C737.186 902.7 735.998 902.775 734.773 902.852 C733.858 902.901 732.943 902.95 732 903 C732 903.33 732 903.66 732 904 C736.62 904.66 741.24 905.32 746 906 C745.01 907.32 744.02 908.64 743 910 C743 910.66 743 911.32 743 912 C742.34 912.33 741.68 912.66 741 913 C740 914 740 914 739 916 C739.825 916.33 739.825 916.33 744 918 C743.67 918.33 743.34 918.66 743 919 C743 919.66 743 920.32 743 921 C740.36 921 737.72 921 735 921 C738.604 923.403 741.945 923.936 746.125 924.688 C746.567 924.77 746.567 924.77 748.801 925.188 C755.434 926.408 762.083 927.515 768.738 928.605 C805.076 934.584 805.076 934.584 822 940 C823.218 940.374 824.436 940.748 825.691 941.133 C829.49 942.347 833.246 943.657 837 945 C837.496 945.175 837.496 945.175 840.006 946.063 C857.172 952.159 873.551 958.396 888.766 968.555 C890.794 969.867 892.818 970.969 895 972 C895 965.548 890.644 961.804 886.438 957.188 C884.082 955.073 881.776 953.507 879 952 C879.247 951.464 879.495 950.928 879.75 950.375 C880.17 946.381 877.141 943.458 874.767 940.424 C871.601 936.541 868.308 932.762 865 929 C864.362 928.274 863.724 927.549 863.066 926.801 C838.978 901.21 802.253 888.399 767.749 886.902 C759.448 886.687 751.245 886.953 743 888 Z M497 897 C497.66 897.66 498.32 898.32 499 899 C499.99 898.67 500.98 898.34 502 898 C500.35 897.67 498.7 897.34 497 897 Z M497 900 C497.66 900.33 497.66 900.33 501 902 C500.67 901.34 500.34 900.68 500 900 C499.01 900 498.02 900 497 900 Z M743 906 C743.66 906.66 744.32 907.32 745 908 C745 907.34 745 906.68 745 906 C744.34 906 743.68 906 743 906 Z M494 914 C493.67 914.66 493.34 915.32 493 916 C493.99 915.67 494.98 915.34 496 915 C495.34 914.67 494.68 914.34 494 914 Z M928 935 C929.051 937.891 930.187 940.287 931.875 942.875 C934.717 947.669 935.755 953.117 937.07 958.477 C937.856 961.455 938.779 964.179 940 967 C942.97 966.34 945.94 965.68 949 965 C949 963.68 949 962.36 949 961 C950.98 960.67 952.96 960.34 955 960 C953.696 955.068 951.558 951.744 948.125 948.062 C947.647 947.544 947.169 947.025 946.676 946.491 C941.824 941.455 936.383 937.91 930 935 C929.34 935 928.68 935 928 935 Z M941 967 C942 969 942 969 942 969 Z M896 971 C896.33 971.99 896.66 972.98 897 974 C897 973.01 897 972.02 897 971 C896.67 971 896.34 971 896 971 Z M898 974 C898.33 974.99 898.66 975.98 899 977 C899 976.01 899 975.02 899 974 C898.67 974 898.34 974 898 974 Z M713 978 C717 979 717 979 717 979 Z M717 979 C717.639 979.433 718.279 979.866 718.938 980.312 C721 982 721 982 722 985 C721.34 985.66 720.68 986.32 720 987 C720.825 987.66 720.825 987.66 725 991 C724.67 992.32 724.34 993.64 724 995 C724.536 995.124 725.072 995.247 725.625 995.375 C726.409 995.581 727.192 995.788 728 996 C728.99 996.247 729.98 996.495 731 996.75 C734.537 998.224 735.796 999.93 738 1003 C738.66 1003.33 739.32 1003.66 740 1004 C739.34 1004.66 738.68 1005.32 738 1006 C738.66 1006.66 739.32 1007.32 740 1008 C734.481 1005.335 729.025 1002.616 723.711 999.562 C722.992 999.149 722.272 998.736 721.531 998.31 C720.103 997.484 718.678 996.65 717.258 995.809 C715.538 994.813 713.772 993.899 712 993 C711.67 993.165 711.67 993.165 710 994 C712.145 995.32 712.145 995.32 723 1002 C722.34 1002 721.68 1002 721 1002 C720.34 1002.66 719.68 1003.32 719 1004 C718.443 1003.526 717.886 1003.051 717.312 1002.562 C714.817 1000.876 712.955 1000.41 710 1000 C711 1003 711 1003 713 1004.062 C713.66 1004.372 714.32 1004.681 715 1005 C715.33 1005.66 715.66 1006.32 716 1007 C712.7 1004.69 709.4 1002.38 706 1000 C705.34 1000.33 704.68 1000.66 704 1001 C704.99 1002.32 705.98 1003.64 707 1005 C706.01 1004.67 705.02 1004.34 704 1004 C702.003 1003.648 700.003 1003.312 698 1003 C697.34 1003.99 696.68 1004.98 696 1006 C694.35 1005.67 692.7 1005.34 691 1005 C700.367 1025.738 726.934 1037.148 746.799 1044.811 C753.005 1047.116 759.283 1049.198 765.586 1051.22 C772.642 1053.49 779.414 1056.125 786.172 1059.164 C789 1060 789 1060 791.391 1059.148 C791.922 1058.769 792.453 1058.39 793 1058 C792.34 1057.34 791.68 1056.68 791 1056 C791 1054.333 791 1052.667 791 1051 C791.66 1050.67 792.32 1050.34 793 1050 C795.31 1051.98 797.62 1053.96 800 1056 C800.66 1055.67 801.32 1055.34 802 1055 C795.259 1047.745 788.247 1041.656 780.133 1035.974 C779.466 1035.498 778.8 1035.022 778.113 1034.531 C777.513 1034.114 776.913 1033.697 776.294 1033.268 C775.867 1032.849 775.44 1032.431 775 1032 C775 1031.01 775 1030.02 775 1029 C774.649 1028.969 774.649 1028.969 772.875 1028.812 C768.879 1027.683 766.972 1025.903 764 1023 C764 1022.01 764 1021.02 764 1020 C765.32 1021.32 766.64 1022.64 768 1024 C768.99 1023.67 769.98 1023.34 771 1023 C770.67 1022.67 770.34 1022.34 770 1022 C771.32 1022.66 772.64 1023.32 774 1024 C774.165 1023.67 774.165 1023.67 775 1022 C773.35 1021.34 771.7 1020.68 770 1020 C773.993 1020 775.153 1021.478 778.188 1024 C779.089 1024.743 779.99 1025.485 780.918 1026.25 C781.262 1026.539 781.262 1026.539 783 1028 C783 1025 783 1025 781 1022 C781.375 1019.812 781.375 1019.812 782 1018 C782 1018.66 782 1019.32 782 1020 C782.99 1020 783.98 1020 785 1020 C785.134 1020.474 785.134 1020.474 785.812 1022.875 C787 1026 787 1026 790 1028 C789.835 1027.34 789.835 1027.34 789 1024 C789.66 1023.67 790.32 1023.34 791 1023 C791.165 1022.67 791.165 1022.67 792 1021 C773.957 998.828 749.001 984.619 721 979 C719.68 979 718.36 979 717 979 Z M714 980 C714.99 980.99 715.98 981.98 717 983 C716.67 982.01 716.34 981.02 716 980 C715.34 980 714.68 980 714 980 Z M693 983 C693.33 983.66 693.66 984.32 694 985 C694.66 984.67 695.32 984.34 696 984 C695.01 983.67 694.02 983.34 693 983 Z M717 983 C717.99 983.99 718.98 984.98 720 986 C719.67 985.01 719.34 984.02 719 983 C718.34 983 717.68 983 717 983 Z M784 983 C784.99 983.99 785.98 984.98 787 986 C787.66 985.67 788.32 985.34 789 985 C788.175 984.67 788.175 984.67 784 983 Z M696 985 C696.66 985.33 696.66 985.33 700 987 C699.67 986.34 699.34 985.68 699 985 C698.01 985 697.02 985 696 985 Z M789 986 C789.99 986.99 790.98 987.98 792 989 C792.66 988.67 793.32 988.34 794 988 C793.175 987.67 793.175 987.67 789 986 Z M700 987 C700.99 987.99 701.98 988.98 703 990 C703.66 989.67 704.32 989.34 705 989 C704.175 988.67 704.175 988.67 700 987 Z M794 989 C796.623 991.915 799.718 993.885 803 996 C803.66 995.67 804.32 995.34 805 995 C803.546 993.994 802.086 992.996 800.625 992 C799.813 991.443 799.001 990.886 798.164 990.312 C796 989 796 989 794 989 Z M820 989 C820.327 989.672 820.655 990.343 820.992 991.035 C822.214 994.631 822.133 997.647 822.125 1001.438 C822.236 1005.228 822.385 1008.18 824.734 1011.312 C827.932 1013.74 829.935 1015 834 1015 C833.34 1014.34 832.68 1013.68 832 1013 C832.66 1012.67 833.32 1012.34 834 1012 C834 1011.34 834 1010.68 834 1010 C835.32 1010.66 836.64 1011.32 838 1012 C837.666 1005.662 836.547 1001.558 832 997 C829.113 994.797 826.105 992.878 823 991 C822.01 990.34 821.02 989.68 820 989 Z M705 990 C705.99 990.99 706.98 991.98 708 993 C708.66 992.67 709.32 992.34 710 992 C709.175 991.67 709.175 991.67 705 990 Z M806 996 C806.33 996.66 806.66 997.32 807 998 C807.66 997.67 808.32 997.34 809 997 C808.01 996.67 807.02 996.34 806 996 Z M685 997 C685.66 998.32 686.32 999.64 687 1001 C687 1000.01 687 999.02 687 998 C686.34 997.67 685.68 997.34 685 997 Z M915 997 C918.097 1000.2 921.32 1003.146 924.688 1006.062 C945.047 1024.398 955.981 1049.312 963.174 1075.272 C965.938 1085.225 969.272 1094.798 974 1104 C974.66 1103.34 975.32 1102.68 976 1102 C975.625 1098.375 975.625 1098.375 975 1095 C975.99 1096.98 976.98 1098.96 978 1101 C979.243 1097.409 978.655 1094.685 978 1091 C978.33 1090.67 978.66 1090.34 979 1090 C979.33 1091.65 979.66 1093.3 980 1095 C980.66 1094.67 981.32 1094.34 982 1094 C982 1093.34 982 1092.68 982 1092 C981.34 1092 980.68 1092 980 1092 C980 1091.34 980 1090.68 980 1090 C980.66 1090 981.32 1090 982 1090 C982.33 1089.34 982.66 1088.68 983 1088 C984.65 1097.24 986.3 1106.48 988 1116 C988.33 1116 988.66 1116 989 1116 C988.835 1113.03 988.835 1113.03 988 1098 C991.304 1102.406 991.867 1104.77 993 1110 C993.66 1109.67 994.32 1109.34 995 1109 C1001.144 1087.952 997.256 1065.547 987.074 1046.598 C984.49 1041.996 981.47 1037.969 978 1034 C977.478 1033.313 976.956 1032.626 976.418 1031.918 C962.125 1014.012 938.282 1003.801 917 997 C916.34 997 915.68 997 915 997 Z M729 999 C729.66 999.33 729.66 999.33 733 1001 C733.33 1000.34 733.66 999.68 734 999 C732.35 999 730.7 999 729 999 Z M813 1001 C813.33 1001.66 813.66 1002.32 814 1003 C814.66 1002.67 815.32 1002.34 816 1002 C815.01 1001.67 814.02 1001.34 813 1001 Z M689 1002 C689.33 1002.99 689.66 1003.98 690 1005 C690 1004.01 690 1003.02 690 1002 C689.67 1002 689.34 1002 689 1002 Z M693 1003 C693.33 1003.66 693.66 1004.32 694 1005 C694.66 1005 695.32 1005 696 1005 C696 1004.34 696 1003.68 696 1003 C695.01 1003 694.02 1003 693 1003 Z M736 1003 C735.67 1003.66 735.34 1004.32 735 1005 C735.99 1004.67 736.98 1004.34 738 1004 C737.34 1003.67 736.68 1003.34 736 1003 Z M816 1003 C816.33 1003.66 816.66 1004.32 817 1005 C817.66 1004.67 818.32 1004.34 819 1004 C818.01 1003.67 817.02 1003.34 816 1003 Z M1125 1003 C1124.67 1003.99 1124.34 1004.98 1124 1006 C1123.01 1006.66 1122.02 1007.32 1121 1008 C1119.981 1008.981 1118.976 1009.977 1118 1011 C1119.37 1014.997 1121.043 1017.958 1124 1021 C1126.625 1021.875 1126.625 1021.875 1129 1022 C1129.66 1021.67 1130.32 1021.34 1131 1021 C1131.33 1020.01 1131.66 1019.02 1132 1018 C1133.663 1016.662 1135.329 1015.328 1137 1014 C1137 1013.34 1137 1012.68 1137 1012 C1137.66 1012 1138.32 1012 1139 1012 C1137.568 1008.376 1135.973 1007.064 1132.562 1005.25 C1131.78 1004.822 1130.998 1004.394 1130.191 1003.953 C1128 1003 1128 1003 1125 1003 Z M543 1015 C543.495 1015.33 543.495 1015.33 546 1017 C547.543 1018.081 549.085 1019.165 550.625 1020.25 C551.513 1020.869 552.401 1021.487 553.316 1022.125 C554.999 1023.301 556.675 1024.487 558.34 1025.688 C563.208 1029.11 568.081 1031.886 574 1033 C576 1032 576 1032 577 1030 C576.835 1029.67 576.835 1029.67 576 1028 C576.99 1028 577.98 1028 579 1028 C577.405 1022.779 574.817 1020.578 570.116 1017.945 C564.077 1014.98 559.1 1014.496 552.438 1014.75 C551.524 1014.768 550.611 1014.786 549.67 1014.805 C547.445 1014.851 545.223 1014.917 543 1015 Z M836 1018 C836.33 1018.66 836.66 1019.32 837 1020 C837.66 1019.67 838.32 1019.34 839 1019 C838.01 1018.67 837.02 1018.34 836 1018 Z M792 1022 C792 1022.66 792 1023.32 792 1024 C792.66 1023.67 793.32 1023.34 794 1023 C793.34 1022.67 792.68 1022.34 792 1022 Z M776 1024 C776.66 1025.32 777.32 1026.64 778 1028 C778.66 1027.34 779.32 1026.68 780 1026 C778.68 1025.34 777.36 1024.68 776 1024 Z M794 1024 C794.33 1024.99 794.66 1025.98 795 1027 C795 1026.01 795 1025.02 795 1024 C794.67 1024 794.34 1024 794 1024 Z M791 1025 C791 1025.66 791 1026.32 791 1027 C791.66 1026.67 792.32 1026.34 793 1026 C792.34 1025.67 791.68 1025.34 791 1025 Z M779 1028 C779 1028.66 779 1029.32 779 1030 C779.66 1029.67 780.32 1029.34 781 1029 C780.34 1028.67 779.68 1028.34 779 1028 Z M784 1028 C785 1030 785 1030 785 1030 Z M854 1036 C855.307 1039.522 856.927 1042.762 858.716 1046.061 C872.45 1071.819 872.743 1098.644 871 1127 C872.65 1127.33 874.3 1127.66 876 1128 C876 1127.34 876 1126.68 876 1126 C876.66 1126 877.32 1126 878 1126 C878.165 1126.33 878.165 1126.33 879 1128 C879.33 1128 879.66 1128 880 1128 C880 1128.66 880 1129.32 880 1130 C880.66 1130 881.32 1130 882 1130 C882.33 1128.02 882.66 1126.04 883 1124 C885.025 1125.933 886.421 1127.632 888 1130 C888.99 1130 889.98 1130 891 1130 C891.231 1120.34 890.835 1111.091 889.438 1101.523 C888.403 1093.194 888.403 1093.194 890 1090 C890.66 1090 891.32 1090 892 1090 C891.616 1084.243 891.359 1081.95 887 1078 C885.964 1075.039 885.671 1073.716 886.992 1070.844 C887.325 1070.235 887.657 1069.627 888 1069 C877.676 1056.515 867.03 1045.721 854 1036 Z M795 1057 C794.67 1057.99 794.34 1058.98 794 1060 C795.32 1059.34 796.64 1058.68 798 1058 C797.01 1057.67 796.02 1057.34 795 1057 Z M888 1071 C888 1071.66 888 1072.32 888 1073 C888.66 1072.67 889.32 1072.34 890 1072 C889.34 1071.67 888.68 1071.34 888 1071 Z M887 1073 C888 1075 888 1075 888 1075 Z M888 1076 C888.33 1076.99 888.66 1077.98 889 1079 C889 1078.01 889 1077.02 889 1076 C888.67 1076 888.34 1076 888 1076 Z M892 1077 C893 1079 893 1079 893 1079 Z M542 1081 C541.01 1082.65 540.02 1084.3 539 1086 C540.32 1087.65 541.64 1089.3 543 1091 C543.144 1090.691 543.144 1090.691 543.875 1089.125 C545 1087 545 1087 547 1085 C545.35 1083.68 543.7 1082.36 542 1081 Z M893 1089 C893 1092 893 1092 893 1092 Z M889 1092 C889.33 1092.66 889.66 1093.32 890 1094 C890.33 1093.34 890.66 1092.68 891 1092 C890.34 1092 889.68 1092 889 1092 Z M837 1096 C838.37 1099.995 840.257 1102.8 843 1106 C842.586 1101.167 840.536 1099.173 837 1096 Z M980 1096 C981 1098 981 1098 981 1098 Z M891 1097 C890.67 1097.99 890.34 1098.98 890 1100 C890.66 1100 891.32 1100 892 1100 C892.33 1099.01 892.66 1098.02 893 1097 C892.34 1097 891.68 1097 891 1097 Z M990 1102 C991 1104 991 1104 991 1104 Z M893 1103 C893.33 1103.66 893.66 1104.32 894 1105 C894.33 1104.34 894.66 1103.68 895 1103 C894.34 1103 893.68 1103 893 1103 Z M975 1104 C975.33 1104.99 975.66 1105.98 976 1107 C976 1106.01 976 1105.02 976 1104 C975.67 1104 975.34 1104 975 1104 Z M977 1107 C978 1109 978 1109 978 1109 Z M980 1108 C979.375 1110.375 979.375 1110.375 979 1113 C979.66 1113.66 980.32 1114.32 981 1115 C981 1112.69 981 1110.38 981 1108 C980.67 1108 980.34 1108 980 1108 Z M978 1109 C979 1111 979 1111 979 1111 Z M848 1114 C849 1116 849 1116 849 1116 Z M989 1119 C990 1121 990 1121 990 1121 Z M989 1123 C989 1125.31 989 1127.62 989 1130 C989.33 1130 989.66 1130 990 1130 C990 1127.69 990 1125.38 990 1123 C989.67 1123 989.34 1123 989 1123 Z M661 1124 C662.393 1126.787 663.924 1126.943 666.805 1128.059 C667.293 1128.252 667.293 1128.252 669.762 1129.229 C671.829 1130.031 673.897 1130.833 675.965 1131.635 C676.454 1131.828 676.454 1131.828 678.93 1132.809 C679.829 1133.157 680.729 1133.506 681.656 1133.865 C683.966 1134.984 685.33 1136.076 687 1138 C687.99 1137.67 688.98 1137.34 690 1137 C690.557 1137.639 691.114 1138.279 691.688 1138.938 C694.221 1141.197 695.683 1141.631 699 1142 C698.01 1142.99 697.02 1143.98 696 1145 C700.75 1146.125 700.75 1146.125 703 1145 C702.01 1143.68 701.02 1142.36 700 1141 C700.33 1141.33 700.66 1141.66 701 1142 C704 1144 704 1144 706 1144 C707.155 1144.186 708.31 1144.371 709.5 1144.562 C713 1145 713 1145 715 1144 C706.073 1140.203 697.066 1136.647 688.008 1133.178 C685.738 1132.308 683.47 1131.43 681.203 1130.553 C679.735 1129.989 678.266 1129.426 676.797 1128.863 C676.464 1128.734 676.464 1128.734 674.782 1128.08 C670.248 1126.355 665.725 1125.104 661 1124 Z M877 1129 C878 1131 878 1131 878 1131 Z M937 1131 C937.33 1131.99 937.66 1132.98 938 1134 C938 1133.01 938 1132.02 938 1131 C937.67 1131 937.34 1131 937 1131 Z M939 1134 C940 1136 940 1136 940 1136 Z M943 1140 C944 1142 944 1142 944 1142 Z M945 1143 C946 1145 946 1145 946 1145 Z M946 1145 C947.229 1148.983 948.714 1152.434 950.75 1156.062 C959.557 1173.352 962.078 1192.877 963 1212 C963.33 1212 963.66 1212 964 1212 C967.103 1189.859 960.276 1167.017 949 1148 C947.262 1146.066 947.262 1146.066 946 1145 Z M691 1149 C691.66 1149.33 691.66 1149.33 695 1151 C694.67 1150.34 694.34 1149.68 694 1149 C693.01 1149 692.02 1149 691 1149 Z M758 1210 C759.974 1213.681 761.981 1217.343 764 1221 C764.468 1221.871 764.936 1222.743 765.418 1223.641 C773.314 1237.708 785.391 1245.51 800.152 1251.25 C803.044 1252.011 804.297 1252.191 807 1251 C807.804 1250.175 808.609 1249.35 809.438 1248.5 C813.931 1244.116 819.194 1244.867 825.188 1244.938 C825.549 1244.94 825.549 1244.94 827.381 1244.951 C829.254 1244.963 831.127 1244.981 833 1245 C833.66 1245 834.32 1245 835 1245 C835.99 1245.186 836.98 1245.371 838 1245.562 C841 1246 841 1246 843 1245 C845.853 1244.726 848.706 1244.554 851.566 1244.379 C852.369 1244.254 853.173 1244.129 854 1244 C854.165 1243.67 854.165 1243.67 855 1242 C854.386 1241.9 853.772 1241.8 853.139 1241.696 C850.299 1241.226 847.462 1240.738 844.625 1240.25 C843.659 1240.093 842.694 1239.935 841.699 1239.773 C832.325 1238.138 824.248 1234.864 815.938 1230.312 C815.31 1229.974 814.683 1229.636 814.037 1229.288 C810.614 1227.442 807.212 1225.559 803.82 1223.656 C788.892 1215.373 774.995 1211.409 758 1210 Z " fill="#000000" transform="translate(0,0)"/>
<path d="" fill="#000000" transform="translate(0,0)"/>
<path d="" fill="#000000" transform="translate(0,0)"/>
<path d="" fill="#000000" transform="translate(0,0)"/>
<path d="" fill="#000000" transform="translate(0,0)"/>
<path d="M0 0 C0.99 0.66 1.98 1.32 3 2 C1.35 2 -0.3 2 -2 2 C-1.34 1.34 -0.68 0.68 0 0 Z " fill="#000000" transform="translate(569,291)"/>
<path d="" fill="#000000" transform="translate(0,0)"/>
<path d="" fill="#000000" transform="translate(0,0)"/>
<path d="" fill="#000000" transform="translate(0,0)"/>
<path d="" fill="#000000" transform="translate(0,0)"/>
<path d="" fill="#000000" transform="translate(0,0)"/>
<path d="M0 0 C0.99 0.33 1.98 0.66 3 1 C2.01 1 1.02 1 0 1 C0 0.67 0 0.34 0 0 Z " fill="#000000" transform="translate(402,298)"/>
<path d="M0 0 C0 0.66 0 1.32 0 2 C-1.32 1.67 -2.64 1.34 -4 1 C-2 0 -2 0 0 0 Z " fill="#000000" transform="translate(592,299)"/>
<path d="" fill="#000000" transform="translate(0,0)"/>
<path d="" fill="#000000" transform="translate(0,0)"/>
<path d="" fill="#000000" transform="translate(0,0)"/>
<path d="" fill="#000000" transform="translate(0,0)"/>
<path d="" fill="#000000" transform="translate(0,0)"/>
<path d="" fill="#000000" transform="translate(0,0)"/>
<path d="" fill="#000000" transform="translate(0,0)"/>
<path d="" fill="#000000" transform="translate(0,0)"/>
<path d="" fill="#000000" transform="translate(0,0)"/>
<path d="" fill="#000000" transform="translate(0,0)"/>
<path d="M0 0 C0.66 0 1.32 0 2 0 C2 0.66 2 1.32 2 2 C1.34 2 0.68 2 0 2 C0 1.34 0 0.68 0 0 Z " fill="#000000" transform="translate(637,314)"/>
<path d="" fill="#000000" transform="translate(0,0)"/>
<path d="" fill="#000000" transform="translate(0,0)"/>
<path d="" fill="#000000" transform="translate(0,0)"/>
<path d="M0 0 C0.99 0 1.98 0 3 0 C2.67 0.66 2.34 1.32 2 2 C1.34 1.34 0.68 0.68 0 0 Z " fill="#000000" transform="translate(755,365)"/>
<path d="" fill="#000000" transform="translate(0,0)"/>
<path d="M0 0 C2 1 2 1 2 1 Z " fill="#000000" transform="translate(755,375)"/>
<path d="M0 0 C3 1 3 1 3 1 Z " fill="#000000" transform="translate(619,385)"/>
<path d="M0 0 C0.495 0.33 0.495 0.33 3 2 C2.01 2 1.02 2 0 2 C0 1.34 0 0.68 0 0 Z " fill="#000000" transform="translate(624,386)"/>
<path d="M0 0 C0.99 0.33 1.98 0.66 3 1 C2.01 1 1.02 1 0 1 C0 0.67 0 0.34 0 0 Z " fill="#000000" transform="translate(620,387)"/>
<path d="" fill="#000000" transform="translate(0,0)"/>
<path d="" fill="#000000" transform="translate(0,0)"/>
<path d="" fill="#000000" transform="translate(0,0)"/>
<path d="" fill="#000000" transform="translate(0,0)"/>
<path d="" fill="#000000" transform="translate(0,0)"/>
<path d="" fill="#000000" transform="translate(0,0)"/>
<path d="" fill="#000000" transform="translate(0,0)"/>
<path d="" fill="#000000" transform="translate(0,0)"/>
<path d="M0 0 C2 1 2 1 2 1 Z " fill="#000000" transform="translate(553,400)"/>
<path d="M0 0 C2 1 2 1 2 1 Z " fill="#000000" transform="translate(550,401)"/>
<path d="" fill="#000000" transform="translate(0,0)"/>
<path d="" fill="#000000" transform="translate(0,0)"/>
<path d="M0 0 C2 1 2 1 2 1 Z " fill="#000000" transform="translate(550,403)"/>
<path d="M0 0 C0.99 0.33 1.98 0.66 3 1 C2.34 1.33 2.34 1.33 -1 3 C-0.67 2.01 -0.34 1.02 0 0 Z " fill="#000000" transform="translate(543,404)"/>
<path d="M0 0 C2 1 2 1 2 1 Z " fill="#000000" transform="translate(546,404)"/>
<path d="" fill="#000000" transform="translate(0,0)"/>
<path d="" fill="#000000" transform="translate(0,0)"/>
<path d="M0 0 C2 1 2 1 2 1 Z " fill="#000000" transform="translate(483,406)"/>
<path d="M0 0 C2 1 2 1 2 1 Z " fill="#000000" transform="translate(480,407)"/>
<path d="" fill="#000000" transform="translate(0,0)"/>
<path d="M0 0 C4 1 4 1 4 1 Z " fill="#000000" transform="translate(549,407)"/>
<path d="M0 0 C4 1 4 1 4 1 Z " fill="#000000" transform="translate(476,408)"/>
<path d="M0 0 C0.33 0.165 0.33 0.165 2 1 C1.67 1.165 1.67 1.165 0 2 C0 1.34 0 0.68 0 0 Z " fill="#000000" transform="translate(485,408)"/>
<path d="" fill="#000000" transform="translate(0,0)"/>
<path d="M0 0 C1.32 0 2.64 0 4 0 C3.67 0.66 3.34 1.32 3 2 C2.01 1.34 1.02 0.68 0 0 Z " fill="#000000" transform="translate(545,408)"/>
<path d="M0 0 C2 1 2 1 2 1 Z " fill="#000000" transform="translate(474,409)"/>
<path d="M0 0 C-0.33 0.99 -0.66 1.98 -1 3 C-2.65 2.67 -4.3 2.34 -6 2 C-3 0 -3 0 0 0 Z " fill="#000000" transform="translate(483,409)"/>
<path d="M0 0 C1.32 0.66 2.64 1.32 4 2 C2.35 2.495 2.35 2.495 -6 5 C-6 4.34 -6 3.68 -6 3 C-3.25 1.375 -3.25 1.375 0 0 Z " fill="#000000" transform="translate(490,409)"/>
<path d="" fill="#000000" transform="translate(0,0)"/>
<path d="M0 0 C0.99 0.33 1.98 0.66 3 1 C1 3 1 3 -2.125 3.125 C-2.599 3.104 -2.599 3.104 -5 3 C-2 1 -2 1 0 0 Z " fill="#000000" transform="translate(542,409)"/>
<path d="M0 0 C3 1 3 1 3 1 Z " fill="#000000" transform="translate(467,411)"/>
<path d="M0 0 C0.33 0.165 0.33 0.165 2 1 C1.67 1.165 1.67 1.165 0 2 C0 1.34 0 0.68 0 0 Z " fill="#000000" transform="translate(475,411)"/>
<path d="" fill="#000000" transform="translate(0,0)"/>
<path d="" fill="#000000" transform="translate(0,0)"/>
<path d="M0 0 C0 0.33 0 0.66 0 1 C-1.65 1.33 -3.3 1.66 -5 2 C-5 2.66 -5 3.32 -5 4 C-5.99 3.67 -6.98 3.34 -8 3 C-8 2.34 -8 1.68 -8 1 C-5.291 -0.354 -2.991 -0.065 0 0 Z " fill="#000000" transform="translate(536,411)"/>
<path d="" fill="#000000" transform="translate(0,0)"/>
<path d="M0 0 C2 1 2 1 2 1 Z " fill="#000000" transform="translate(494,412)"/>
<path d="M0 0 C0.66 0.33 1.32 0.66 2 1 C1.505 1.33 1.505 1.33 -1 3 C-0.67 2.01 -0.34 1.02 0 0 Z " fill="#000000" transform="translate(524,412)"/>
<path d="" fill="#000000" transform="translate(0,0)"/>
<path d="" fill="#000000" transform="translate(0,0)"/>
<path d="" fill="#000000" transform="translate(0,0)"/>
<path d="M0 0 C0.289 0.113 0.289 0.113 1.75 0.688 C-0.215 1.755 -2.219 2.753 -4.25 3.688 C-4.91 3.358 -5.57 3.027 -6.25 2.688 C-2.804 -0.389 -2.804 -0.389 0 0 Z " fill="#000000" transform="translate(492.25,413.3125)"/>
<path d="" fill="#000000" transform="translate(0,0)"/>
<path d="" fill="#000000" transform="translate(0,0)"/>
<path d="" fill="#000000" transform="translate(0,0)"/>
<path d="M0 0 C0.99 0.33 1.98 0.66 3 1 C1.68 1.33 0.36 1.66 -1 2 C-0.67 1.34 -0.34 0.68 0 0 Z " fill="#000000" transform="translate(535,413)"/>
<path d="" fill="#000000" transform="translate(0,0)"/>
<path d="" fill="#000000" transform="translate(0,0)"/>
<path d="" fill="#000000" transform="translate(0,0)"/>
<path d="" fill="#000000" transform="translate(0,0)"/>
<path d="" fill="#000000" transform="translate(0,0)"/>
<path d="" fill="#000000" transform="translate(0,0)"/>
<path d="M0 0 C2 1 2 1 2 1 Z " fill="#000000" transform="translate(516,414)"/>
<path d="M0 0 C2 1 2 1 2 1 Z " fill="#000000" transform="translate(526,414)"/>
<path d="" fill="#000000" transform="translate(0,0)"/>
<path d="" fill="#000000" transform="translate(0,0)"/>
<path d="M0 0 C1.32 0.66 2.64 1.32 4 2 C2.35 2 0.7 2 -1 2 C-0.67 1.34 -0.34 0.68 0 0 Z " fill="#000000" transform="translate(494,415)"/>
<path d="" fill="#000000" transform="translate(0,0)"/>
<path d="M0 0 C0.33 0.66 0.66 1.32 1 2 C0.34 1.67 -0.32 1.34 -1 1 C-0.67 0.67 -0.34 0.34 0 0 Z " fill="#000000" transform="translate(504,415)"/>
<path d="" fill="#000000" transform="translate(0,0)"/>
<path d="M0 0 C3 1 3 1 3 1 Z " fill="#000000" transform="translate(513,415)"/>
<path d="M0 0 C2 1 2 1 2 1 Z " fill="#000000" transform="translate(524,415)"/>
<path d="M0 0 C2 1 2 1 2 1 Z " fill="#000000" transform="translate(480,416)"/>
<path d="" fill="#000000" transform="translate(0,0)"/>
<path d="" fill="#000000" transform="translate(0,0)"/>
<path d="" fill="#000000" transform="translate(0,0)"/>
<path d="M0 0 C3 1 3 1 3 1 Z " fill="#000000" transform="translate(804,432)"/>
<path d="" fill="#000000" transform="translate(0,0)"/>
<path d="" fill="#000000" transform="translate(0,0)"/>
<path d="" fill="#000000" transform="translate(0,0)"/>
<path d="M0 0 C0.99 0.33 1.98 0.66 3 1 C2.01 1 1.02 1 0 1 C0 0.67 0 0.34 0 0 Z " fill="#000000" transform="translate(823,443)"/>
<path d="" fill="#000000" transform="translate(0,0)"/>
<path d="" fill="#000000" transform="translate(0,0)"/>
<path d="" fill="#000000" transform="translate(0,0)"/>
<path d="" fill="#000000" transform="translate(0,0)"/>
<path d="" fill="#000000" transform="translate(0,0)"/>
<path d="" fill="#000000" transform="translate(0,0)"/>
<path d="" fill="#000000" transform="translate(0,0)"/>
<path d="M0 0 C0.33 0.495 0.33 0.495 2 3 C1.34 3 0.68 3 0 3 C0 2.01 0 1.02 0 0 Z " fill="#000000" transform="translate(901,451)"/>
<path d="" fill="#000000" transform="translate(0,0)"/>
<path d="" fill="#000000" transform="translate(0,0)"/>
<path d="" fill="#000000" transform="translate(0,0)"/>
<path d="M0 0 C3 1 3 1 3 1 Z " fill="#000000" transform="translate(666,455)"/>
<path d="" fill="#000000" transform="translate(0,0)"/>
<path d="" fill="#000000" transform="translate(0,0)"/>
<path d="M0 0 C2 1 2 1 2 1 Z " fill="#000000" transform="translate(733,465)"/>
<path d="" fill="#000000" transform="translate(0,0)"/>
<path d="" fill="#000000" transform="translate(0,0)"/>
<path d="" fill="#000000" transform="translate(0,0)"/>
<path d="" fill="#000000" transform="translate(0,0)"/>
<path d="" fill="#000000" transform="translate(0,0)"/>
<path d="" fill="#000000" transform="translate(0,0)"/>
<path d="" fill="#000000" transform="translate(0,0)"/>
<path d="M0 0 C3 1 3 1 3 1 Z " fill="#000000" transform="translate(596,574)"/>
<path d="" fill="#000000" transform="translate(0,0)"/>
<path d="" fill="#000000" transform="translate(0,0)"/>
<path d="" fill="#000000" transform="translate(0,0)"/>
<path d="" fill="#000000" transform="translate(0,0)"/>
<path d="" fill="#000000" transform="translate(0,0)"/>
<path d="" fill="#000000" transform="translate(0,0)"/>
<path d="M0 0 C2 1 2 1 2 1 Z " fill="#000000" transform="translate(762,626)"/>
<path d="M0 0 C2 1 2 1 2 1 Z " fill="#000000" transform="translate(760,627)"/>
<path d="" fill="#000000" transform="translate(0,0)"/>
<path d="" fill="#000000" transform="translate(0,0)"/>
<path d="" fill="#000000" transform="translate(0,0)"/>
<path d="" fill="#000000" transform="translate(0,0)"/>
<path d="" fill="#000000" transform="translate(0,0)"/>
<path d="M0 0 C0.33 0.165 0.33 0.165 2 1 C1.67 1.165 1.67 1.165 0 2 C0 1.34 0 0.68 0 0 Z " fill="#000000" transform="translate(433,658)"/>
<path d="" fill="#000000" transform="translate(0,0)"/>
<path d="" fill="#000000" transform="translate(0,0)"/>
<path d="M0 0 C0.33 0.99 0.66 1.98 1 3 C0.01 2.67 -0.98 2.34 -2 2 C-1.34 2 -0.68 2 0 2 C0 1.34 0 0.68 0 0 Z " fill="#000000" transform="translate(656,664)"/>
<path d="M0 0 C2 1 2 1 2 1 Z " fill="#000000" transform="translate(658,665)"/>
<path d="" fill="#000000" transform="translate(0,0)"/>
<path d="" fill="#000000" transform="translate(0,0)"/>
<path d="" fill="#000000" transform="translate(0,0)"/>
<path d="" fill="#000000" transform="translate(0,0)"/>
<path d="" fill="#000000" transform="translate(0,0)"/>
<path d="M0 0 C1 4 1 4 1 4 Z " fill="#000000" transform="translate(434,696)"/>
<path d="M0 0 C1 4 1 4 1 4 Z " fill="#000000" transform="translate(430,708)"/>
<path d="" fill="#000000" transform="translate(0,0)"/>
<path d="M0 0 C1 4 1 4 1 4 Z " fill="#000000" transform="translate(434,712)"/>
<path d="" fill="#000000" transform="translate(0,0)"/>
<path d="" fill="#000000" transform="translate(0,0)"/>
<path d="" fill="#000000" transform="translate(0,0)"/>
<path d="" fill="#000000" transform="translate(0,0)"/>
<path d="" fill="#000000" transform="translate(0,0)"/>
<path d="" fill="#000000" transform="translate(0,0)"/>
<path d="" fill="#000000" transform="translate(0,0)"/>
<path d="" fill="#000000" transform="translate(0,0)"/>
<path d="" fill="#000000" transform="translate(0,0)"/>
<path d="" fill="#000000" transform="translate(0,0)"/>
<path d="M0 0 C0.66 0.66 1.32 1.32 2 2 C1.67 2.165 1.67 2.165 0 3 C0 2.01 0 1.02 0 0 Z " fill="#000000" transform="translate(415,761)"/>
<path d="" fill="#000000" transform="translate(0,0)"/>
<path d="" fill="#000000" transform="translate(0,0)"/>
<path d="M0 0 C0.99 0.99 1.98 1.98 3 3 C2.01 2.67 1.02 2.34 0 2 C0 1.34 0 0.68 0 0 Z " fill="#000000" transform="translate(398,783)"/>
<path d="M0 0 C0.66 0 1.32 0 2 0 C1.67 0.66 1.34 1.32 1 2 C0.67 1.34 0.34 0.68 0 0 Z " fill="#000000" transform="translate(400,783)"/>
<path d="" fill="#000000" transform="translate(0,0)"/>
<path d="" fill="#000000" transform="translate(0,0)"/>
<path d="" fill="#000000" transform="translate(0,0)"/>
<path d="" fill="#000000" transform="translate(0,0)"/>
<path d="" fill="#000000" transform="translate(0,0)"/>
<path d="" fill="#000000" transform="translate(0,0)"/>
<path d="" fill="#000000" transform="translate(0,0)"/>
<path d="" fill="#000000" transform="translate(0,0)"/>
<path d="" fill="#000000" transform="translate(0,0)"/>
<path d="" fill="#000000" transform="translate(0,0)"/>
<path d="" fill="#000000" transform="translate(0,0)"/>
<path d="" fill="#000000" transform="translate(0,0)"/>
<path d="" fill="#000000" transform="translate(0,0)"/>
<path d="" fill="#000000" transform="translate(0,0)"/>
<path d="" fill="#000000" transform="translate(0,0)"/>
<path d="" fill="#000000" transform="translate(0,0)"/>
<path d="" fill="#000000" transform="translate(0,0)"/>
<path d="" fill="#000000" transform="translate(0,0)"/>
<path d="" fill="#000000" transform="translate(0,0)"/>
<path d="" fill="#000000" transform="translate(0,0)"/>
<path d="" fill="#000000" transform="translate(0,0)"/>
<path d="M0 0 C2 1 2 1 2 1 Z " fill="#000000" transform="translate(389,813)"/>
<path d="" fill="#000000" transform="translate(0,0)"/>
<path d="" fill="#000000" transform="translate(0,0)"/>
<path d="" fill="#000000" transform="translate(0,0)"/>
<path d="M0 0 C0.33 0.165 0.33 0.165 2 1 C1.67 1.66 1.34 2.32 1 3 C0.67 2.01 0.34 1.02 0 0 Z " fill="#000000" transform="translate(507,834)"/>
<path d="" fill="#000000" transform="translate(0,0)"/>
<path d="M0 0 C2 1 2 1 2 1 Z " fill="#000000" transform="translate(312,844)"/>
<path d="" fill="#000000" transform="translate(0,0)"/>
<path d="" fill="#000000" transform="translate(0,0)"/>
<path d="" fill="#000000" transform="translate(0,0)"/>
<path d="M0 0 C2 1 2 1 2 1 Z " fill="#000000" transform="translate(452,888)"/>
<path d="M0 0 C2 1 2 1 2 1 Z " fill="#000000" transform="translate(454,889)"/>
<path d="" fill="#000000" transform="translate(0,0)"/>
<path d="M0 0 C2 1 2 1 2 1 Z " fill="#000000" transform="translate(459,891)"/>
<path d="" fill="#000000" transform="translate(0,0)"/>
<path d="" fill="#000000" transform="translate(0,0)"/>
<path d="M0 0 C2 1 2 1 2 1 Z " fill="#000000" transform="translate(745,895)"/>
<path d="M0 0 C0.99 0.33 1.98 0.66 3 1 C2.01 1 1.02 1 0 1 C0 0.67 0 0.34 0 0 Z " fill="#000000" transform="translate(483,896)"/>
<path d="M0 0 C2 1 2 1 2 1 Z " fill="#000000" transform="translate(480,899)"/>
<path d="M0 0 C2 1 2 1 2 1 Z " fill="#000000" transform="translate(483,900)"/>
<path d="M0 0 C2 1 2 1 2 1 Z " fill="#000000" transform="translate(485,901)"/>
<path d="" fill="#000000" transform="translate(0,0)"/>
<path d="M0 0 C2 1 2 1 2 1 Z " fill="#000000" transform="translate(749,906)"/>
<path d="" fill="#000000" transform="translate(0,0)"/>
<path d="" fill="#000000" transform="translate(0,0)"/>
<path d="M0 0 C0.66 0 1.32 0 2 0 C2 0.66 2 1.32 2 2 C1.34 2 0.68 2 0 2 C0 1.34 0 0.68 0 0 Z " fill="#000000" transform="translate(745,910)"/>
<path d="" fill="#000000" transform="translate(0,0)"/>
<path d="M0 0 C2 1 2 1 2 1 Z " fill="#000000" transform="translate(489,911)"/>
<path d="" fill="#000000" transform="translate(0,0)"/>
<path d="" fill="#000000" transform="translate(0,0)"/>
<path d="" fill="#000000" transform="translate(0,0)"/>
<path d="" fill="#000000" transform="translate(0,0)"/>
<path d="M0 0 C0.495 0.33 0.495 0.33 3 2 C2.67 2.66 2.34 3.32 2 4 C1.34 2.68 0.68 1.36 0 0 Z " fill="#000000" transform="translate(697,920)"/>
<path d="M0 0 C1.65 0 3.3 0 5 0 C5 0.33 5 0.66 5 1 C3.35 1 1.7 1 0 1 C0 0.67 0 0.34 0 0 Z " fill="#000000" transform="translate(743,921)"/>
<path d="M0 0 C2 1 2 1 2 1 Z " fill="#000000" transform="translate(695,922)"/>
<path d="" fill="#000000" transform="translate(0,0)"/>
<path d="" fill="#000000" transform="translate(0,0)"/>
<path d="M0 0 C0.66 0.33 1.32 0.66 2 1 C2 1.66 2 2.32 2 3 C1.01 2.67 0.02 2.34 -1 2 C-0.67 1.34 -0.34 0.68 0 0 Z " fill="#000000" transform="translate(700,924)"/>
<path d="" fill="#000000" transform="translate(0,0)"/>
<path d="M0 0 C0.66 0.33 0.66 0.33 4 2 C4 2.99 4 3.98 4 5 C2.68 3.35 1.36 1.7 0 0 Z " fill="#000000" transform="translate(703,928)"/>
<path d="" fill="#000000" transform="translate(0,0)"/>
<path d="" fill="#000000" transform="translate(0,0)"/>
<path d="" fill="#000000" transform="translate(0,0)"/>
<path d="" fill="#000000" transform="translate(0,0)"/>
<path d="" fill="#000000" transform="translate(0,0)"/>
<path d="" fill="#000000" transform="translate(0,0)"/>
<path d="" fill="#000000" transform="translate(0,0)"/>
<path d="M0 0 C0.99 0.33 1.98 0.66 3 1 C2.01 1 1.02 1 0 1 C0 0.67 0 0.34 0 0 Z " fill="#000000" transform="translate(724,986)"/>
<path d="" fill="#000000" transform="translate(0,0)"/>
<path d="M0 0 C1.32 0.33 2.64 0.66 4 1 C3.67 1.165 3.67 1.165 2 2 C1.34 1.34 0.68 0.68 0 0 Z " fill="#000000" transform="translate(726,991)"/>
<path d="M0 0 C2 1 2 1 2 1 Z " fill="#000000" transform="translate(730,993)"/>
<path d="M0 0 C2 1 2 1 2 1 Z " fill="#000000" transform="translate(726,994)"/>
<path d="" fill="#000000" transform="translate(0,0)"/>
<path d="" fill="#000000" transform="translate(0,0)"/>
<path d="" fill="#000000" transform="translate(0,0)"/>
<path d="M0 0 C2 1 2 1 2 1 Z " fill="#000000" transform="translate(724,1003)"/>
<path d="" fill="#000000" transform="translate(0,0)"/>
<path d="M0 0 C2 1 2 1 2 1 Z " fill="#000000" transform="translate(726,1004)"/>
<path d="" fill="#000000" transform="translate(0,0)"/>
<path d="M0 0 C0.99 0.33 1.98 0.66 3 1 C2.01 1 1.02 1 0 1 C0 0.67 0 0.34 0 0 Z " fill="#000000" transform="translate(728,1005)"/>
<path d="" fill="#000000" transform="translate(0,0)"/>
<path d="" fill="#000000" transform="translate(0,0)"/>
<path d="" fill="#000000" transform="translate(0,0)"/>
<path d="" fill="#000000" transform="translate(0,0)"/>
<path d="M0 0 C2 1 2 1 2 1 Z " fill="#000000" transform="translate(731,1007)"/>
<path d="M0 0 C2 1 2 1 2 1 Z " fill="#000000" transform="translate(724,1008)"/>
<path d="" fill="#000000" transform="translate(0,0)"/>
<path d="M0 0 C2 1 2 1 2 1 Z " fill="#000000" transform="translate(733,1008)"/>
<path d="M0 0 C2 1 2 1 2 1 Z " fill="#000000" transform="translate(743,1008)"/>
<path d="" fill="#000000" transform="translate(0,0)"/>
<path d="" fill="#000000" transform="translate(0,0)"/>
<path d="" fill="#000000" transform="translate(0,0)"/>
<path d="M0 0 C2 1 2 1 2 1 Z " fill="#000000" transform="translate(741,1009)"/>
<path d="M0 0 C0.66 0.33 1.32 0.66 2 1 C2 2.98 2 4.96 2 7 C0.68 6.34 -0.64 5.68 -2 5 C-2 4.01 -2 3.02 -2 2 C-1.34 2 -0.68 2 0 2 C0 1.34 0 0.68 0 0 Z " fill="#000000" transform="translate(750,1009)"/>
<path d="" fill="#000000" transform="translate(0,0)"/>
<path d="" fill="#000000" transform="translate(0,0)"/>
<path d="" fill="#000000" transform="translate(0,0)"/>
<path d="M0 0 C0.99 0.66 1.98 1.32 3 2 C1.68 2.33 0.36 2.66 -1 3 C-1.33 2.34 -1.66 1.68 -2 1 C-1.34 0.67 -0.68 0.34 0 0 Z " fill="#000000" transform="translate(745,1009)"/>
<path d="" fill="#000000" transform="translate(0,0)"/>
<path d="" fill="#000000" transform="translate(0,0)"/>
<path d="" fill="#000000" transform="translate(0,0)"/>
<path d="M0 0 C2 1 2 1 2 1 Z " fill="#000000" transform="translate(746,1012)"/>
<path d="M0 0 C0.66 0 1.32 0 2 0 C1.67 0.66 1.34 1.32 1 2 C0.67 1.34 0.34 0.68 0 0 Z " fill="#000000" transform="translate(766,1012)"/>
<path d="" fill="#000000" transform="translate(0,0)"/>
<path d="" fill="#000000" transform="translate(0,0)"/>
<path d="M0 0 C0.66 0.66 1.32 1.32 2 2 C1.01 1.67 0.02 1.34 -1 1 C-0.67 0.67 -0.34 0.34 0 0 Z " fill="#000000" transform="translate(757,1015)"/>
<path d="" fill="#000000" transform="translate(0,0)"/>
<path d="" fill="#000000" transform="translate(0,0)"/>
<path d="M0 0 C0.66 0 1.32 0 2 0 C1.67 0.66 1.34 1.32 1 2 C0.67 1.34 0.34 0.68 0 0 Z " fill="#000000" transform="translate(765,1016)"/>
<path d="" fill="#000000" transform="translate(0,0)"/>
<path d="" fill="#000000" transform="translate(0,0)"/>
<path d="" fill="#000000" transform="translate(0,0)"/>
<path d="M0 0 C2 1 2 1 2 1 Z " fill="#000000" transform="translate(755,1018)"/>
<path d="" fill="#000000" transform="translate(0,0)"/>
<path d="" fill="#000000" transform="translate(0,0)"/>
<path d="" fill="#000000" transform="translate(0,0)"/>
<path d="" fill="#000000" transform="translate(0,0)"/>
<path d="" fill="#000000" transform="translate(0,0)"/>
<path d="" fill="#000000" transform="translate(0,0)"/>
<path d="" fill="#000000" transform="translate(0,0)"/>
<path d="" fill="#000000" transform="translate(0,0)"/>
<path d="" fill="#000000" transform="translate(0,0)"/>
<path d="" fill="#000000" transform="translate(0,0)"/>
<path d="" fill="#000000" transform="translate(0,0)"/>
<path d="" fill="#000000" transform="translate(0,0)"/>
<path d="" fill="#000000" transform="translate(0,0)"/>
<path d="" fill="#000000" transform="translate(0,0)"/>
<path d="" fill="#000000" transform="translate(0,0)"/>
<path d="" fill="#000000" transform="translate(0,0)"/>
<path d="" fill="#000000" transform="translate(0,0)"/>
<path d="" fill="#000000" transform="translate(0,0)"/>
<path d="" fill="#000000" transform="translate(0,0)"/>
<path d="" fill="#000000" transform="translate(0,0)"/>
<path d="" fill="#000000" transform="translate(0,0)"/>
<path d="" fill="#000000" transform="translate(0,0)"/>
<path d="" fill="#000000" transform="translate(0,0)"/>
<path d="" fill="#000000" transform="translate(0,0)"/>
<path d="" fill="#000000" transform="translate(0,0)"/>
<path d="" fill="#000000" transform="translate(0,0)"/>
<path d="" fill="#000000" transform="translate(0,0)"/>
<path d="" fill="#000000" transform="translate(0,0)"/>
<path d="" fill="#000000" transform="translate(0,0)"/>
<path d="" fill="#000000" transform="translate(0,0)"/>
<path d="" fill="#000000" transform="translate(0,0)"/>
<path d="" fill="#000000" transform="translate(0,0)"/>
<path d="" fill="#000000" transform="translate(0,0)"/>
<path d="" fill="#000000" transform="translate(0,0)"/>
<path d="" fill="#000000" transform="translate(0,0)"/>
<path d="" fill="#000000" transform="translate(0,0)"/>
<path d="" fill="#000000" transform="translate(0,0)"/>
<path d="" fill="#000000" transform="translate(0,0)"/>
<path d="" fill="#000000" transform="translate(0,0)"/>
<path d="" fill="#000000" transform="translate(0,0)"/>
<path d="M0 0 C2 1 2 1 2 1 Z " fill="#000000" transform="translate(879,1062)"/>
<path d="" fill="#000000" transform="translate(0,0)"/>
<path d="" fill="#000000" transform="translate(0,0)"/>
<path d="M0 0 C0.495 0.33 0.495 0.33 3 2 C2.67 2.66 2.34 3.32 2 4 C1.34 2.68 0.68 1.36 0 0 Z " fill="#000000" transform="translate(883,1066)"/>
<path d="M0 0 C0.66 0 1.32 0 2 0 C1.67 0.66 1.34 1.32 1 2 C0.67 1.34 0.34 0.68 0 0 Z " fill="#000000" transform="translate(883,1070)"/>
<path d="" fill="#000000" transform="translate(0,0)"/>
<path d="" fill="#000000" transform="translate(0,0)"/>
<path d="" fill="#000000" transform="translate(0,0)"/>
<path d="" fill="#000000" transform="translate(0,0)"/>
<path d="" fill="#000000" transform="translate(0,0)"/>
<path d="" fill="#000000" transform="translate(0,0)"/>
<path d="" fill="#000000" transform="translate(0,0)"/>
<path d="M0 0 C0.33 0.165 0.33 0.165 2 1 C2 1.66 2 2.32 2 3 C1.34 3 0.68 3 0 3 C0 2.01 0 1.02 0 0 Z " fill="#000000" transform="translate(979,1086)"/>
<path d="M0 0 C0.33 0.165 0.33 0.165 2 1 C1.67 1.66 1.34 2.32 1 3 C0.67 2.01 0.34 1.02 0 0 Z " fill="#000000" transform="translate(886,1088)"/>
<path d="" fill="#000000" transform="translate(0,0)"/>
<path d="" fill="#000000" transform="translate(0,0)"/>
<path d="" fill="#000000" transform="translate(0,0)"/>
<path d="" fill="#000000" transform="translate(0,0)"/>
<path d="" fill="#000000" transform="translate(0,0)"/>
<path d="" fill="#000000" transform="translate(0,0)"/>
<path d="" fill="#000000" transform="translate(0,0)"/>
<path d="" fill="#000000" transform="translate(0,0)"/>
<path d="" fill="#000000" transform="translate(0,0)"/>
<path d="" fill="#000000" transform="translate(0,0)"/>
<path d="" fill="#000000" transform="translate(0,0)"/>
<path d="" fill="#000000" transform="translate(0,0)"/>
<path d="" fill="#000000" transform="translate(0,0)"/>
<path d="" fill="#000000" transform="translate(0,0)"/>
<path d="" fill="#000000" transform="translate(0,0)"/>
<path d="" fill="#000000" transform="translate(0,0)"/>
</svg>
